<svg width="428" height="208" viewBox="0 0 428 208" fill="none" xmlns="http://www.w3.org/2000/svg">
<path d="M146.007 138.068L145.169 137.961C145.189 137.81 145.685 134.249 149.195 132.03C152.297 130.068 151.237 123.935 151.226 123.874L152.057 123.723C152.069 123.791 152.355 125.409 152.219 127.32C152.035 129.918 151.146 131.793 149.644 132.744C146.47 134.753 146.012 138.035 146.007 138.068Z" fill="#283689"/>
<path d="M151.412 138.217C151.39 138.178 149.354 134.354 153.029 132.028C156.063 130.109 153.37 124.146 153.341 124.086L154.108 123.732C154.139 123.799 154.863 125.39 155.174 127.276C155.602 129.879 155.017 131.768 153.479 132.74C150.466 134.645 152.081 137.681 152.152 137.809L151.412 138.217Z" fill="#283689"/>
<path d="M419.579 191.845C419.508 192.004 419.439 192.161 419.367 192.319C419.225 192.633 419.084 192.942 418.943 193.246C417.994 195.295 417.048 197.136 416.152 198.76C416.122 198.817 416.092 198.87 416.06 198.926C413.086 204.299 408.095 207.514 402.758 207.514C391.414 207.514 369.038 207.512 344.248 207.51H340.869C327.359 207.508 313.254 207.508 299.923 207.505H295.94C274.494 207.503 255.455 207.499 244.708 207.494C244.708 207.494 190.665 207.309 135.344 207.114C134.407 207.111 133.47 207.107 132.534 207.104C116.43 207.045 100.293 206.989 85.4268 206.934C83.5022 206.927 81.6006 206.92 79.722 206.914C60.6301 206.847 44.0212 206.784 32.8449 206.74C25.0194 206.709 17.7965 202.254 13.1433 194.961C12.8976 194.577 12.6608 194.185 12.431 193.785C11.5121 192.195 10.7115 190.481 10.0452 188.662C5.49978 176.229 0.572599 158.316 0 138.015H426.802C430.085 161.313 424.927 179.81 419.579 191.845Z" fill="#BF9BFE"/>
<path d="M327.158 180.679H87.165L111.354 156.04H306.078L327.158 180.679Z" fill="#505ABA"/>
<path d="M327.157 180.679H87.1641V183.827H327.157V180.679Z" fill="#2B478B"/>
<path d="M304.017 161.207H112.737V162.047H304.017V161.207Z" fill="#2B478B"/>
<path d="M309.147 166.355H106.252V167.197H309.147V166.355Z" fill="#2B478B"/>
<path d="M314.549 172.044H100.848V172.884H314.549V172.044Z" fill="#2B478B"/>
<path d="M122.352 157.413H113.705V160.007H122.352V157.413Z" fill="#2B478B"/>
<path d="M188.599 157.413H179.95V160.007H188.599V157.413Z" fill="#2B478B"/>
<path d="M202.507 157.413H193.858V160.007H202.507V157.413Z" fill="#2B478B"/>
<path d="M239.478 157.413H230.831V160.007H239.478V157.413Z" fill="#2B478B"/>
<path d="M252.341 157.413H243.692V160.007H252.341V157.413Z" fill="#2B478B"/>
<path d="M266.247 157.413H257.6V160.007H266.247V157.413Z" fill="#2B478B"/>
<path d="M416.368 138.014H414.669C410.836 132.41 407.514 132.15 401.074 131.65C399.093 131.498 396.846 131.323 394.217 130.967C388.351 130.179 386.423 127.032 384.191 123.386C383.18 121.735 382.137 120.028 380.612 118.303C375.931 113.007 365.406 114.553 365.3 114.569L365.083 113.169C365.546 113.098 376.477 111.485 381.671 117.363C383.277 119.183 384.405 121.023 385.398 122.645C387.607 126.256 389.205 128.863 394.406 129.562C396.995 129.911 399.22 130.082 401.182 130.236C408.187 130.782 411.937 131.072 416.368 138.014Z" fill="#2B478B"/>
<path d="M359.878 147.746H328.115C325.24 147.746 322.909 145.415 322.909 142.54V110.778C322.909 107.903 325.24 105.572 328.115 105.572H359.878C362.754 105.572 365.085 107.903 365.085 110.778V142.54C365.085 145.415 362.754 147.746 359.878 147.746Z" fill="#778DE8"/>
<path d="M358.454 125.71C358.454 126.466 358.395 127.21 358.284 127.937C358.258 128.113 358.226 128.288 358.19 128.463C357.952 129.711 357.551 130.902 357.013 132.014C356.962 132.12 356.909 132.226 356.854 132.33C355.914 134.159 354.592 135.76 352.996 137.034C352.91 137.103 352.823 137.172 352.735 137.238C351.111 138.475 349.213 139.376 347.15 139.836H347.148L346.777 139.915H346.776C346.252 140.018 345.722 140.092 345.18 140.134C345.003 140.15 344.828 140.163 344.651 140.168H344.649C344.429 140.182 344.204 140.186 343.981 140.186C342.44 140.186 340.956 139.943 339.561 139.496C339.344 139.427 339.13 139.355 338.916 139.274C338.418 139.09 337.934 138.878 337.464 138.637C337.358 138.584 337.253 138.531 337.149 138.477C335.136 137.397 333.411 135.856 332.111 133.997C332.047 133.906 331.982 133.814 331.92 133.723C331.027 132.381 330.352 130.883 329.946 129.276C329.891 129.057 329.84 128.836 329.795 128.612C329.684 128.069 329.605 127.518 329.557 126.956C329.546 126.816 329.534 126.676 329.529 126.537V126.535C329.513 126.261 329.504 125.985 329.504 125.71C329.504 124.204 329.734 122.755 330.16 121.389C330.197 121.269 330.237 121.148 330.278 121.028C330.955 119.04 332.056 117.248 333.468 115.755C333.546 115.675 333.62 115.596 333.701 115.518C335.129 114.074 336.859 112.932 338.793 112.19C338.904 112.146 339.014 112.105 339.127 112.066C340.645 111.526 342.28 111.232 343.981 111.232C344.796 111.232 345.595 111.299 346.373 111.43C346.51 111.453 346.647 111.476 346.784 111.506C346.882 111.524 346.979 111.543 347.076 111.566C347.267 111.609 347.456 111.653 347.645 111.704C349.734 112.247 351.643 113.249 353.253 114.594C353.339 114.664 353.422 114.735 353.507 114.811C355.209 116.299 356.557 118.178 357.415 120.307C357.46 120.415 357.503 120.525 357.544 120.634C357.897 121.574 358.155 122.564 358.305 123.587C358.334 123.778 358.358 123.971 358.376 124.163V124.165C358.425 124.672 358.454 125.188 358.454 125.71Z" fill="#E27227"/>
<path d="M352.995 137.035C352.908 137.103 352.822 137.172 352.733 137.238L350.805 135.089L350.584 134.843L346.622 130.423L346.401 130.178L341.928 125.19L341.707 124.945L337.291 120.019L337.07 119.772L333.466 115.757C333.544 115.677 333.618 115.597 333.7 115.52L337.317 119.553L337.538 119.798L341.955 124.724L342.175 124.969L346.648 129.957L346.869 130.202L350.833 134.622L351.053 134.868L352.995 137.035Z" fill="#1C3870"/>
<path d="M357.012 132.014C356.96 132.12 356.907 132.226 356.853 132.33L355.527 130.851L355.306 130.605L351.344 126.187L351.123 125.941L346.65 120.954L346.429 120.708L342.011 115.781L341.792 115.536L338.791 112.19C338.902 112.146 339.012 112.105 339.125 112.066L342.037 115.316L342.258 115.562L346.675 120.487L346.896 120.733L351.369 125.72L351.59 125.966L355.552 130.386L355.773 130.632L357.012 132.014Z" fill="#1C3870"/>
<path d="M358.299 123.585C358.327 123.776 358.352 123.969 358.369 124.162L356.243 121.793L356.024 121.548L351.548 116.559L351.328 116.313L347.069 111.568C347.26 111.61 347.449 111.655 347.638 111.706L351.574 116.094L351.795 116.34L356.268 121.329L356.487 121.574L358.299 123.585Z" fill="#1C3870"/>
<path d="M347.147 139.837L346.776 139.917H346.774L346.172 139.244L345.952 138.998L341.988 134.58L341.767 134.334L337.296 129.347L337.075 129.099L332.657 124.176L332.436 123.928L330.158 121.389C330.195 121.269 330.236 121.148 330.277 121.028L332.68 123.709L332.901 123.955L337.319 128.88L337.538 129.126L342.015 134.113L342.234 134.359L346.198 138.779L346.419 139.024L347.147 139.837Z" fill="#1C3870"/>
<path d="M346.779 111.506L342.257 115.564L342.009 115.783L337.536 119.798L337.291 120.019L332.901 123.955L332.655 124.176L329.554 126.956C329.543 126.816 329.531 126.676 329.525 126.537V126.535L332.434 123.928L332.68 123.709L337.07 119.772L337.316 119.553L341.792 115.537L342.038 115.318L346.369 111.432C346.505 111.453 346.641 111.476 346.779 111.506Z" fill="#1C3870"/>
<path d="M353.502 114.807L351.796 116.334L351.549 116.555L346.894 120.731L346.648 120.952L342.172 124.966L341.926 125.187L337.536 129.122L337.292 129.343L333.498 132.744L333.252 132.965L332.105 133.993C332.042 133.903 331.976 133.811 331.915 133.719L333.033 132.719L333.279 132.498L337.071 129.096L337.317 128.877L341.705 124.941L341.951 124.72L346.427 120.707L346.673 120.486L351.33 116.31L351.576 116.089L353.247 114.59C353.334 114.663 353.417 114.733 353.502 114.807Z" fill="#1C3870"/>
<path d="M357.536 120.632L356.49 121.571L356.244 121.792L351.589 125.966L351.344 126.187L346.867 130.2L346.622 130.421L342.232 134.359L341.986 134.58L338.193 137.98L337.948 138.201L337.458 138.639C337.352 138.586 337.248 138.533 337.144 138.478L337.725 137.955L337.971 137.734L341.763 134.334L342.011 134.113L346.397 130.178L346.643 129.957L351.119 125.943L351.365 125.722L356.022 121.548L356.267 121.327L357.405 120.307C357.455 120.413 357.497 120.521 357.536 120.632Z" fill="#1C3870"/>
<path d="M358.282 127.937C358.256 128.113 358.224 128.288 358.189 128.463L355.771 130.633L355.525 130.853L351.049 134.868L350.803 135.089L346.415 139.024L346.168 139.244L345.174 140.136C344.998 140.152 344.823 140.164 344.646 140.17L345.95 138.998L346.196 138.779L350.584 134.843L350.831 134.622L355.304 130.607L355.55 130.388L358.282 127.937Z" fill="#1C3870"/>
<path d="M339.556 139.498C339.339 139.429 339.125 139.357 338.911 139.275L337.948 138.201L337.727 137.955L333.254 132.968L333.035 132.722L329.942 129.276C329.887 129.057 329.836 128.836 329.792 128.612L333.281 132.501L333.5 132.747L337.973 137.734L338.194 137.98L339.556 139.498Z" fill="#1C3870"/>
<path d="M359.878 105.708H328.115C325.24 105.708 322.909 103.377 322.909 100.501V68.738C322.909 65.8626 325.24 63.5316 328.115 63.5316H359.878C362.754 63.5316 365.085 65.8626 365.085 68.738V100.501C365.085 103.377 362.754 105.708 359.878 105.708Z" fill="#8C9DF4"/>
<path d="M358.454 83.6698C358.454 84.4262 358.395 85.1702 358.284 85.8965C358.258 86.0733 358.226 86.2482 358.19 86.4232C357.952 87.6709 357.551 88.862 357.013 89.9737C356.962 90.0797 356.909 90.1857 356.854 90.29C355.914 92.1191 354.592 93.7203 352.996 94.9945C352.91 95.0634 352.823 95.1324 352.735 95.1977C351.111 96.4348 349.213 97.3361 347.15 97.7974H347.148L346.777 97.8769H346.776C346.252 97.9794 345.722 98.0537 345.18 98.0961C345.003 98.112 344.828 98.1244 344.651 98.1297H344.649C344.429 98.1438 344.204 98.1473 343.981 98.1473C342.44 98.1473 340.956 97.9052 339.561 97.4581C339.344 97.3892 339.13 97.3167 338.916 97.2354C338.418 97.0516 337.934 96.8395 337.464 96.601C337.358 96.5479 337.253 96.4949 337.149 96.4401C335.136 95.3603 333.411 93.8193 332.111 91.9601C332.047 91.87 331.982 91.7781 331.92 91.6862C331.027 90.3448 330.352 88.8461 329.946 87.2397C329.891 87.0205 329.84 86.7996 329.795 86.5752C329.684 86.0326 329.605 85.4812 329.557 84.9192C329.546 84.7796 329.534 84.64 329.529 84.5004V84.4986C329.513 84.2247 329.504 83.949 329.504 83.6733C329.504 82.1676 329.734 80.7184 330.16 79.3523C330.197 79.2321 330.237 79.1102 330.278 78.9918C330.955 77.0036 332.056 75.2116 333.468 73.72C333.546 73.6404 333.62 73.5609 333.701 73.4832C335.129 72.0393 336.859 70.8976 338.793 70.1554C338.904 70.1112 339.014 70.0723 339.127 70.0317C340.645 69.4909 342.28 69.1975 343.981 69.1975C344.796 69.1975 345.595 69.2647 346.373 69.3954C346.51 69.4184 346.647 69.4414 346.784 69.4697C346.882 69.4873 346.979 69.5068 347.076 69.5297C347.267 69.5722 347.456 69.6164 347.645 69.6676C349.734 70.2102 351.643 71.2122 353.253 72.5553C353.339 72.626 353.422 72.6967 353.507 72.7727C355.209 74.2608 356.557 76.1394 357.415 78.269C357.46 78.3768 357.503 78.4863 357.544 78.5959C357.897 79.5361 358.155 80.5258 358.305 81.549C358.334 81.7399 358.358 81.9325 358.376 82.1252V82.1269C358.425 82.6324 358.454 83.1484 358.454 83.6698Z" fill="#E27227"/>
<path d="M352.995 94.9945C352.908 95.0635 352.822 95.1324 352.733 95.1978L350.805 93.0488L350.584 92.8031L346.622 88.3831L346.401 88.1375L341.928 83.1502L341.707 82.9046L337.291 77.9792L337.07 77.7317L333.466 73.7165C333.544 73.637 333.618 73.5574 333.7 73.4797L337.317 77.5126L337.538 77.7583L341.955 82.6837L342.175 82.9293L346.648 87.9166L346.869 88.1622L350.833 92.5822L351.053 92.8278L352.995 94.9945Z" fill="#1C3870"/>
<path d="M357.012 89.9754C356.96 90.0814 356.907 90.1874 356.853 90.2917L355.527 88.8125L355.306 88.5668L351.344 84.1486L351.123 83.903L346.65 78.9157L346.429 78.6701L342.011 73.7429L341.792 73.4972L338.791 70.1518C338.902 70.1076 339.012 70.0687 339.125 70.0281L342.037 73.2781L342.258 73.5238L346.675 78.4492L346.896 78.6948L351.369 83.6821L351.59 83.9277L355.552 88.3477L355.773 88.5934L357.012 89.9754Z" fill="#1C3870"/>
<path d="M358.299 81.5455C358.327 81.7363 358.352 81.9289 358.369 82.1216L356.243 79.7534L356.024 79.5078L351.548 74.5187L351.328 74.2731L347.069 69.528C347.26 69.5704 347.449 69.6145 347.638 69.6658L351.574 74.0522L351.795 74.2978L356.268 79.2869L356.487 79.5325L358.299 81.5455Z" fill="#1C3870"/>
<path d="M347.147 97.7974L346.776 97.877H346.774L346.172 97.2036L345.952 96.958L341.988 92.5398L341.767 92.2941L337.296 87.3069L337.075 87.0594L332.657 82.1358L332.436 81.8884L330.158 79.3488C330.195 79.2286 330.236 79.1067 330.277 78.9883L332.68 81.6692L332.901 81.9149L337.319 86.8403L337.538 87.086L342.015 92.0732L342.234 92.3189L346.198 96.7388L346.419 96.9845L347.147 97.7974Z" fill="#1C3870"/>
<path d="M346.779 69.4662L342.257 73.5239L342.009 73.743L337.536 77.7583L337.291 77.9792L332.901 81.9149L332.655 82.1358L329.554 84.9158C329.543 84.7762 329.531 84.6365 329.525 84.4969V84.4952L332.434 81.8884L332.68 81.6693L337.07 77.7318L337.316 77.5126L341.792 73.4974L342.038 73.2782L346.369 69.3902C346.505 69.4132 346.641 69.4379 346.779 69.4662Z" fill="#1C3870"/>
<path d="M353.502 72.7692L351.796 74.2961L351.549 74.517L346.894 78.6949L346.648 78.9158L342.172 82.9293L341.926 83.1502L337.536 87.0859L337.292 87.3068L333.498 90.7071L333.252 90.928L332.105 91.9583C332.042 91.8682 331.976 91.7763 331.915 91.6844L333.033 90.6841L333.279 90.4632L337.071 87.0612L337.317 86.842L341.705 82.9063L341.951 82.6854L346.427 78.6719L346.673 78.451L351.33 74.2749L351.576 74.054L353.247 72.5554C353.334 72.6225 353.417 72.6932 353.502 72.7692Z" fill="#1C3870"/>
<path d="M357.536 78.5924L356.49 79.5308L356.244 79.7517L351.589 83.926L351.344 84.147L346.867 88.1605L346.622 88.3814L342.232 92.3189L341.986 92.5398L338.193 95.94L337.948 96.1609L337.458 96.5992C337.352 96.5462 337.248 96.4932 337.144 96.4384L337.725 95.9153L337.971 95.6944L341.763 92.2941L342.011 92.0732L346.397 88.1375L346.643 87.9166L351.119 83.9031L351.365 83.6822L356.022 79.5078L356.267 79.2869L357.405 78.2672C357.455 78.3732 357.497 78.4828 357.536 78.5924Z" fill="#1C3870"/>
<path d="M358.282 85.8983C358.256 86.075 358.224 86.25 358.189 86.425L355.771 88.5934L355.525 88.8126L351.049 92.8278L350.803 93.0487L346.415 96.9845L346.168 97.2036L345.174 98.0961C344.998 98.112 344.823 98.1244 344.646 98.1297L345.95 96.958L346.196 96.7388L350.584 92.8031L350.831 92.5822L355.304 88.5669L355.55 88.3478L358.282 85.8983Z" fill="#1C3870"/>
<path d="M339.556 97.4581C339.339 97.3891 339.125 97.3167 338.911 97.2354L337.948 96.1609L337.727 95.9152L333.254 90.928L333.035 90.6823L329.942 87.2361C329.887 87.017 329.836 86.7961 329.792 86.5717L333.281 90.4614L333.5 90.7071L337.973 95.6943L338.194 95.94L339.556 97.4581Z" fill="#1C3870"/>
<path d="M349.679 174.651L372.051 154.522C372.963 153.702 375.451 153.138 377.611 153.262L406.313 154.923C408.471 155.048 409.482 155.814 408.57 156.635L386.198 176.765C385.286 177.585 382.798 178.149 380.64 178.025L351.937 176.364C349.778 176.238 348.767 175.471 349.679 174.651Z" fill="#1B376D"/>
<path d="M408.903 155.69V153.248L349.897 172.229L349.388 172.755L349.342 175.341L375.411 176.193L408.903 155.69Z" fill="#1B376D"/>
<path d="M377.201 150.738L405.414 152.371C407.678 152.502 408.738 153.306 407.782 154.166L386.752 173.089C385.375 174.328 381.616 175.179 378.357 174.99L353.076 173.527C350.676 173.387 349.554 172.536 350.566 171.624L372.629 151.774C373.379 151.098 375.425 150.635 377.201 150.738Z" fill="#505ABA"/>
<path d="M408.894 153.249C408.799 152.721 407.843 152.313 406.31 152.222L377.608 150.561C375.448 150.434 372.962 151 372.05 151.82L349.678 171.947C349.363 172.23 349.275 172.506 349.388 172.751V172.753C349.543 173.094 350.079 173.379 350.913 173.539H350.915C351.217 173.596 351.558 173.638 351.933 173.661L377.157 175.121H377.159L380.635 175.323C382.793 175.448 385.283 174.883 386.193 174.064L401.745 160.071L401.747 160.069L407.33 155.047L408.567 153.935C408.795 153.728 408.903 153.528 408.903 153.339C408.903 153.308 408.899 153.278 408.894 153.249ZM407.577 153.875L406.406 154.928L406.404 154.93L398.465 162.077L398.453 162.087L385.502 173.736L385.501 173.737L385.255 173.958L385.253 173.96L385.202 174.006C384.521 174.619 382.662 175.038 381.052 174.944L380.936 174.939H380.927L377.755 174.754L352.35 173.283C351.968 173.26 351.632 173.211 351.353 173.14C350.459 172.917 350.146 172.474 350.664 172.005L350.715 171.963L350.719 171.959L350.964 171.739L373.038 151.876C373.718 151.266 375.579 150.846 377.189 150.939L405.888 152.599C407.258 152.678 408.009 153.104 407.784 153.606C407.751 153.693 407.682 153.781 407.577 153.875Z" fill="#2B478B"/>
<path d="M351.491 173.435L380.704 175.126C382.667 175.24 384.929 174.727 385.76 173.981L385.999 173.767L350.471 171.712L349.897 172.228C349.253 172.804 349.967 173.347 351.491 173.435Z" fill="#2B478B"/>
<path d="M419.579 191.845C419.508 192.004 419.439 192.161 419.367 192.318C419.225 192.633 419.084 192.942 418.943 193.246C413.545 193.2 406.681 193.669 399.545 194.156C381.084 195.416 361.999 196.719 355.905 190.8C353.891 188.839 353.168 186.764 353.756 184.627C354.677 181.291 358.625 178.562 361.608 176.924C361.608 176.922 361.61 176.922 361.61 176.922C362.444 176.462 363.206 176.09 363.805 175.812H363.807C364.537 175.473 365.026 175.275 365.111 175.243L365.523 175.869L365.935 176.496C365.914 176.505 365.389 176.715 364.586 177.097C362.003 178.318 356.531 181.289 355.527 184.924C355.052 186.651 355.633 188.284 357.314 189.918C362.805 195.252 382.241 193.925 399.388 192.755C406.828 192.242 413.976 191.756 419.579 191.845Z" fill="#1B376D"/>
<path d="M313.033 0.460876H101.288V124.768H313.033V0.460876Z" fill="#F99746"/>
<path d="M313.033 0.460876H101.288V104.909H313.033V0.460876Z" fill="#283689"/>
<path d="M234.872 145.017V148.037H172.699V145.017C177.092 145.017 180.69 141.626 181.023 137.321C181.039 137.105 181.047 136.888 181.047 136.669V124.768H226.523V136.669C226.523 136.888 226.532 137.105 226.548 137.321C226.705 139.365 227.601 141.205 228.967 142.573C230.48 144.084 232.567 145.017 234.872 145.017Z" fill="#F99746"/>
<g opacity="0.7">
<path opacity="0.7" d="M226.523 124.768H181.047V127.254H226.523V124.768Z" fill="#D86713"/>
</g>
<g opacity="0.7">
<path opacity="0.7" d="M234.872 145.017H172.699C177.092 145.017 180.69 141.626 181.023 137.321H226.548C226.705 139.366 227.601 141.205 228.967 142.573C230.48 144.084 232.567 145.017 234.872 145.017Z" fill="#D86713"/>
</g>
<path d="M55.6602 106.901C55.6602 106.901 53.4564 87.3404 61.9199 70.8587C62.8177 69.1109 65.0444 69.5509 65.412 71.5515C66.7287 78.7231 68.04 93.0469 61.9747 108.265C53.3433 129.921 55.6602 106.901 55.6602 106.901Z" fill="#A8D29F"/>
<path d="M65.7677 110.767C65.7677 110.767 67.1497 91.1329 78.4638 76.4592C79.6638 74.904 81.7739 75.7399 81.7722 77.774C81.7651 85.0641 80.4555 99.3896 71.7287 113.254C59.31 132.986 65.7677 110.767 65.7677 110.767Z" fill="#A8D29F"/>
<path d="M60.1369 106.858C60.1369 106.858 60.1776 87.1742 70.4632 71.7636C71.5536 70.1288 73.7167 70.8216 73.8528 72.8505C74.3423 80.1246 74.0136 94.5049 66.2535 108.933C55.2115 129.463 60.1369 106.858 60.1369 106.858Z" fill="#82B378"/>
<path d="M66.7872 107.851C66.7872 107.851 70.6717 92.9833 81.4627 83.3499C82.6061 82.3284 84.1065 83.2739 83.8114 84.8344C82.7581 90.4278 79.6936 101.231 71.0022 110.617C58.6383 123.973 66.7872 107.851 66.7872 107.851Z" fill="#82B378"/>
<path d="M52.2652 109.195C52.2652 109.195 54.469 89.6344 46.0055 73.1527C45.1077 71.4049 42.881 71.845 42.5134 73.8455C41.1967 81.0171 39.8854 95.341 45.9507 110.559C54.5821 132.215 52.2652 109.195 52.2652 109.195Z" fill="#A8D29F"/>
<path d="M42.1578 113.061C42.1578 113.061 40.7758 93.4269 29.4617 78.7532C28.2617 77.198 26.1516 78.0339 26.1533 80.068C26.1604 87.3581 27.4699 101.684 36.1968 115.548C48.6154 135.28 42.1578 113.061 42.1578 113.061Z" fill="#A8D29F"/>
<path d="M47.7885 109.15C47.7885 109.15 47.7479 89.4664 37.4623 74.0558C36.3719 72.421 34.2087 73.1138 34.0727 75.1426C33.5831 82.4167 33.9118 96.7971 41.672 111.225C52.7139 131.757 47.7885 109.15 47.7885 109.15Z" fill="#82B378"/>
<path d="M59.2457 110.209C59.2457 110.209 62.957 90.8784 55.796 73.7888C55.0361 71.9773 52.781 72.2442 52.2614 74.2094C50.3934 81.2573 47.9758 95.4362 52.8464 111.08C59.7741 133.341 59.2457 110.209 59.2457 110.209Z" fill="#82B378"/>
<path d="M41.1385 110.145C41.1385 110.145 37.2541 95.2772 26.4631 85.6438C25.3196 84.6223 23.8192 85.5678 24.1143 87.1283C25.1676 92.7217 28.2321 103.525 36.9236 112.911C49.2892 126.266 41.1385 110.145 41.1385 110.145Z" fill="#82B378"/>
<path d="M64.9265 142.541H43.7067C34.8951 142.541 27.6846 135.331 27.6846 126.519V107.171C27.6846 106.708 28.0628 106.33 28.5258 106.33H80.9486V126.519C80.9486 135.331 73.7381 142.541 64.9265 142.541Z" fill="#2B478B"/>
<path d="M309.87 3.21075H104.033V100.97H309.87V3.21075Z" fill="#505ABA"/>
<g opacity="0.1">
<path opacity="0.1" d="M153.019 7.72449H108.884V51.8588H153.019V7.72449Z" fill="#DDE7FE"/>
</g>
<g opacity="0.1">
<path opacity="0.1" d="M153.018 56.7152H108.884V96.9244H153.018V56.7152Z" fill="#DDE7FE"/>
</g>
<g opacity="0.1">
<path opacity="0.1" d="M303.712 61.7767H161.568V96.9244H303.712V61.7767Z" fill="#DDE7FE"/>
</g>
<path d="M252.424 7.72095H161.568V57.4434H252.424V7.72095Z" fill="#EBF2F9"/>
<path d="M248.105 21.2884V57.4434H161.568V30.4464H164.8V32.1218H167.456V31.148H169.918V27.2883H171.145V25.4874H171.33V27.2883H174.273V23.9128H174.563V27.2883H176.508V27.2405H176.505V26.8129H176.508V26.4082H176.505V25.7331H176.508V25.3018H176.505V24.6285H176.508V24.1973H176.505V23.524H176.508V23.0556H176.505V22.3805H176.508V21.7903H176.505V21.1152H176.508V20.6698H177.088V20.1644H177.182V20.6698H181.48V20.1644H181.572V20.6698H182.356V24.1991L182.908 24.2008V24.1991H182.904V23.5257H182.908V23.0556H182.904V22.3805H182.908V21.9175H182.904V21.2442H182.908V21.2406H188.118V21.2442H189.016C189.061 21.2618 189.107 21.2795 189.153 21.2954V25.1463H192.96V30.2043H196.037V20.8501H196.707V20.1962H196.827V20.8501H199.257V20.1962H199.377V20.8501H202.818V20.1962H202.938V20.8501H205.103V20.1962H205.223V20.8501H206.114V29.5804H209.514V28.1701L213.524 28.1825V25.8939H214.332V25.4432H214.438V25.8939H217.534V25.8957H218.154V25.4432H218.26V25.8957H219.006V30.4446H223.781V32.12H226.436V31.1462H228.898V27.2865H230.126V25.4856H230.31V27.2865H233.252V23.911H233.54V27.2865H235.486V27.2388H235.483V26.8111H235.486V26.4064H235.483V25.7313H235.486V25.3001H235.483V24.6267H235.486V24.1955H235.483V23.5222H235.486V23.0556H235.483V22.3805H235.486V21.7903H235.483V21.1152H235.486V20.6698H236.068V20.1644H236.161V20.6698H240.457V20.1644H240.551V20.6698H241.334V24.1991L241.878 24.2008H241.887V24.1991H241.882V23.5257H241.887V23.0556H241.882V22.3805H241.887V21.9175H241.882V21.2442H241.887V21.2406H247.097V21.2442H247.993C248.027 21.2583 248.064 21.2742 248.105 21.2884Z" fill="#D5E5FB"/>
<path d="M206.111 20.8536H198.423V22.3329H206.111V20.8536Z" fill="#E2EEFD"/>
<path d="M239.081 20.6681H235.495V21.5659H239.081V20.6681Z" fill="#E2EEFD"/>
<path d="M239.08 22.0519H235.495V22.9514H239.08V22.0519Z" fill="#E2EEFD"/>
<path d="M239.08 23.464H235.495V24.3636H239.08V23.464Z" fill="#E2EEFD"/>
<path d="M239.08 24.899H235.495V25.7968H239.08V24.899Z" fill="#E2EEFD"/>
<path d="M239.08 26.2828H235.495V27.1824H239.08V26.2828Z" fill="#E2EEFD"/>
<path d="M239.081 27.8062H235.495V28.7057H239.081V27.8062Z" fill="#E2EEFD"/>
<path d="M239.08 29.1899H235.495V30.0877H239.08V29.1899Z" fill="#E2EEFD"/>
<path d="M239.08 30.6021H235.495V31.5016H239.08V30.6021Z" fill="#E2EEFD"/>
<path d="M239.08 32.0353H235.495V32.933H239.08V32.0353Z" fill="#E2EEFD"/>
<path d="M239.08 33.4208H235.495V34.3186H239.08V33.4208Z" fill="#E2EEFD"/>
<path d="M180.314 20.6681H176.47V21.5659H180.314V20.6681Z" fill="#E2EEFD"/>
<path d="M180.314 22.0519H176.47V22.9514H180.314V22.0519Z" fill="#E2EEFD"/>
<path d="M180.314 23.4639H176.47V24.3635H180.314V23.4639Z" fill="#E2EEFD"/>
<path d="M180.314 24.8989H176.47V25.7967H180.314V24.8989Z" fill="#E2EEFD"/>
<path d="M180.314 26.2828H176.47V27.1824H180.314V26.2828Z" fill="#E2EEFD"/>
<path d="M180.314 27.8062H176.47V28.7057H180.314V27.8062Z" fill="#E2EEFD"/>
<path d="M180.313 29.1899H176.469V30.0877H180.313V29.1899Z" fill="#E2EEFD"/>
<path d="M180.313 30.6021H176.469V31.5016H180.313V30.6021Z" fill="#E2EEFD"/>
<path d="M180.313 32.0353H176.469V32.933H180.313V32.0353Z" fill="#E2EEFD"/>
<path d="M180.313 33.4208H176.469V34.3186H180.313V33.4208Z" fill="#E2EEFD"/>
<path d="M187.347 21.2566H182.979V22.1561H187.347V21.2566Z" fill="#E2EEFD"/>
<path d="M187.347 22.6404H182.979V23.5381H187.347V22.6404Z" fill="#E2EEFD"/>
<path d="M187.347 24.0524H182.979V24.9502H187.347V24.0524Z" fill="#E2EEFD"/>
<path d="M187.347 25.4874H182.979V26.387H187.347V25.4874Z" fill="#E2EEFD"/>
<path d="M187.347 26.8712H182.979V27.769H187.347V26.8712Z" fill="#E2EEFD"/>
<path d="M187.347 28.3152H182.979V29.2147H187.347V28.3152Z" fill="#E2EEFD"/>
<path d="M187.347 29.699H182.979V30.5967H187.347V29.699Z" fill="#E2EEFD"/>
<path d="M187.347 31.1111H182.979V32.0088H187.347V31.1111Z" fill="#E2EEFD"/>
<path d="M187.347 32.5443H182.979V33.4439H187.347V32.5443Z" fill="#E2EEFD"/>
<path d="M187.347 33.9299H182.979V34.8294H187.347V33.9299Z" fill="#E2EEFD"/>
<path d="M240.35 17.5576H240.013L240.016 17.5311L240.119 16.6298C240.122 16.6015 240.147 16.5786 240.175 16.5786C240.179 16.5786 240.182 16.5786 240.186 16.5786C240.205 16.5803 240.223 16.5892 240.235 16.6015C240.251 16.6157 240.262 16.6369 240.265 16.6599L240.35 17.5576Z" fill="#9DB0F4"/>
<path d="M240.044 17.3526H240.032L240.117 16.6298C240.12 16.6015 240.145 16.5786 240.173 16.5786C240.177 16.5786 240.18 16.5786 240.184 16.5786C240.187 16.5821 240.191 16.5839 240.193 16.5874C240.207 16.6033 240.216 16.6245 240.217 16.6475L240.223 17.1671C240.223 17.2678 240.143 17.3509 240.044 17.3526Z" fill="#AFCDFB"/>
<path d="M240.564 21.564H239.914V50.3071H240.564V21.564Z" fill="#9DB0F4"/>
<path d="M240.214 21.564H239.914V50.3071H240.214V21.564Z" fill="#AEC3FF"/>
<path d="M241.276 45.7209H239.203V53.3256H241.276V45.7209Z" fill="#9DB0F4"/>
<path d="M240.438 45.7209H239.203V53.3256H240.438V45.7209Z" fill="#AEC3FF"/>
<path d="M241.372 17.9906C241.372 18.3458 240.838 18.6338 240.181 18.6338C240.13 18.6338 240.082 18.6321 240.032 18.6286C239.444 18.5897 238.99 18.3193 238.99 17.9906C238.99 17.6619 239.446 17.3915 240.032 17.3526C240.082 17.3491 240.13 17.3473 240.181 17.3473C240.838 17.3473 241.372 17.6354 241.372 17.9906Z" fill="#9DB0F4"/>
<path d="M240.755 17.9905C240.755 18.2768 240.457 18.5225 240.032 18.6285C239.444 18.5896 238.99 18.3192 238.99 17.9905C238.99 17.6618 239.446 17.3914 240.032 17.3525C240.458 17.4586 240.755 17.7042 240.755 17.9905Z" fill="#AEC3FF"/>
<path d="M241.273 22.1313H239.2L238.47 18.6109H241.893L241.273 22.1313Z" fill="#AEC3FF"/>
<path d="M242.077 18.3458H238.284V18.6834H242.077V18.3458Z" fill="#9DB0F4"/>
<path d="M240.668 18.3458H238.284V18.6834H240.668V18.3458Z" fill="#AEC3FF"/>
<path d="M239.542 45.721H240.868L240.674 45.1325C240.656 45.0812 240.608 45.0459 240.553 45.0459H239.933C239.866 45.0459 239.806 45.0865 239.779 45.1484L239.542 45.721Z" fill="#819DEA"/>
<path d="M238.713 18.7823H241.638L241.066 21.9457H239.387L238.713 18.7823Z" fill="#C5D7FF"/>
<path d="M241.835 18.3458H238.526L238.797 17.9587H241.578L241.835 18.3458Z" fill="#9DB0F4"/>
<path d="M241.02 18.3458H238.526L238.797 17.9587H240.762L241.02 18.3458Z" fill="#AEC3FF"/>
<path d="M182.47 53.3574L161.568 53.3503V48.2464C161.635 48.2782 161.702 48.31 161.771 48.3436C164.624 49.7963 164.249 51.7315 167.78 51.021C171.311 50.3141 174.223 50.0154 175.803 51.021C177.385 52.0284 178.544 51.6272 180.511 51.6201C182.143 51.6166 182.42 52.9156 182.47 53.3574Z" fill="#A8D29F"/>
<path d="M186.806 47.5113H166.891L165.97 42.8298H185.85L186.806 47.5113Z" fill="#D36D1A"/>
<path d="M187.148 47.5112H167.232L166.312 42.8297H186.192L187.148 47.5112Z" fill="#F49540"/>
<path d="M172.769 48.0839H167.326C167.085 48.0839 166.889 47.8895 166.889 47.6474V47.5095H172.767V48.0839H172.769Z" fill="#D36D1A"/>
<path d="M190.813 47.5112H172.725V48.0838H190.813V47.5112Z" fill="#FFA255"/>
<path d="M168.08 48.0839L167.739 49.4252C167.739 49.4252 167.739 49.4252 167.739 49.427L166.73 53.3981C166.716 53.4493 166.67 53.4864 166.617 53.4864C166.514 53.4864 166.437 53.3928 166.456 53.292L167.356 48.6582L167.467 48.0821H168.08V48.0839Z" fill="#FFA255"/>
<path d="M167.739 49.4252C167.773 48.7395 167.357 48.6599 167.357 48.6599L167.469 48.0838H168.08L167.739 49.4252Z" fill="#D36D1A"/>
<path d="M172.399 48.0839L172.058 49.4252C172.058 49.4252 172.058 49.4252 172.058 49.427L171.049 53.3981C171.035 53.4493 170.989 53.4864 170.936 53.4864C170.833 53.4864 170.756 53.3928 170.775 53.292L171.676 48.6582L171.788 48.0821H172.399V48.0839Z" fill="#FFA255"/>
<path d="M172.058 49.4252C172.092 48.7395 171.677 48.6599 171.677 48.6599L171.788 48.0838H172.4L172.058 49.4252Z" fill="#D36D1A"/>
<path d="M189.164 48.0839L189.505 49.4252C189.505 49.4252 189.505 49.4252 189.505 49.427L190.514 53.3981C190.528 53.4493 190.574 53.4864 190.627 53.4864C190.73 53.4864 190.808 53.3928 190.788 53.292L189.887 48.6582L189.776 48.0821H189.164V48.0839Z" fill="#FFA255"/>
<path d="M189.503 49.4252C189.47 48.7395 189.885 48.6599 189.885 48.6599L189.774 48.0838H189.162L189.503 49.4252Z" fill="#D36D1A"/>
<path d="M184.843 48.0839L185.184 49.4252C185.184 49.4252 185.184 49.4252 185.184 49.427L186.193 53.3981C186.207 53.4493 186.253 53.4864 186.306 53.4864C186.409 53.4864 186.486 53.3928 186.467 53.292L185.566 48.6582L185.454 48.0821H184.843V48.0839Z" fill="#FFA255"/>
<path d="M185.184 49.4252C185.152 48.7395 185.566 48.6599 185.566 48.6599L185.454 48.0838H184.843L185.184 49.4252Z" fill="#D36D1A"/>
<path d="M173.985 20.5301C173.47 20.827 172.866 21.0161 172.209 21.0603C169.324 21.2406 168.324 22.3133 165.991 24.5843C164.738 25.8002 163.01 26.0635 161.568 26.1059V10.6811C161.974 10.9709 162.393 11.2714 162.819 11.5541C164.406 12.618 166.127 13.4822 168.008 13.0245C169.901 12.5632 171.36 12.5915 172.506 12.9609C173.965 13.4204 174.921 14.4207 175.605 15.6471C176.553 17.3296 175.733 19.5299 173.985 20.5301Z" fill="#A8D29F"/>
<path d="M197.536 15.0763C197.536 14.3623 198.114 13.7844 198.828 13.7844C199.542 13.7844 200.12 14.3623 200.12 15.0763C200.12 15.7903 199.542 16.3682 198.828 16.3682C198.116 16.3682 197.536 15.7903 197.536 15.0763Z" fill="#F8FCFF"/>
<path d="M218.812 13.9259C218.812 13.9259 219.935 12.1215 222.621 12.3212C222.621 12.3212 226.52 9.31329 230.676 11.92C230.676 11.92 235.094 11.2732 238.367 12.4785C240.548 13.2826 241.269 14.1256 241.269 14.1256L218.812 13.9259Z" fill="#F8FCFF"/>
<g opacity="0.5">
<path opacity="0.5" d="M232.226 18.5632C232.226 18.5632 232.961 17.3827 234.716 17.5135C234.716 17.5135 237.266 15.5465 239.984 17.2519C239.984 17.2519 242.874 16.8295 245.014 17.6177C246.44 18.1426 246.912 18.694 246.912 18.694L232.226 18.5632Z" fill="#F8FCFF"/>
</g>
<g opacity="0.5">
<path opacity="0.5" d="M177.383 17.745C177.383 17.745 178.119 16.5644 179.873 16.6952C179.873 16.6952 182.424 14.7282 185.142 16.4337C185.142 16.4337 188.031 16.0113 190.171 16.7995C191.599 17.3244 192.069 17.8758 192.069 17.8758L177.383 17.745Z" fill="#F8FCFF"/>
</g>
<path d="M252.424 53.3256H161.568V57.4433H252.424V53.3256Z" fill="#9DB0F4"/>
<path d="M218.811 52.0673C218.811 52.0673 218.366 50.452 219.58 48.8809C220.794 47.3098 222.853 47.7322 222.853 47.7322C222.853 47.7322 223.139 48.174 222.572 48.5239C222.003 48.8738 220.022 48.174 219.523 51.6149C219.523 51.6149 219.285 52.3254 218.811 52.0673Z" fill="#F99746"/>
<path d="M203.406 28.824C203.406 28.4193 203.735 28.0923 204.138 28.0923C204.543 28.0923 204.87 28.4211 204.87 28.824C204.87 29.2287 204.543 29.5557 204.138 29.5557C203.733 29.5557 203.406 29.2287 203.406 28.824Z" fill="#ED7D2B"/>
<path d="M221.132 51.1076C221.132 50.5404 221.591 50.0809 222.159 50.0809C222.726 50.0809 223.185 50.5404 223.185 51.1076C223.185 51.6749 222.726 52.1344 222.159 52.1344C221.591 52.1344 221.132 51.6749 221.132 51.1076Z" fill="#9DB0F4"/>
<path d="M198.36 50.323C198.36 49.4553 199.064 48.7501 199.933 48.7501C200.801 48.7501 201.506 49.4535 201.506 50.323C201.506 51.1925 200.803 51.8959 199.933 51.8959C199.065 51.8959 198.36 51.1925 198.36 50.323Z" fill="#9DB0F4"/>
<path d="M202.397 29.5125L199.9 47.7143L200.522 47.7996L203.019 29.5978L202.397 29.5125Z" fill="#131375"/>
<path d="M200.861 30.1318V29.4284L204.06 28.7286L204.27 29.3206L200.861 30.1318Z" fill="#ED7D2B"/>
<path d="M199.985 53.3079C198.369 53.3079 197.056 51.9948 197.056 50.3795C197.056 48.7642 198.369 47.4511 199.985 47.4511C201.6 47.4511 202.913 48.7642 202.913 50.3795C202.913 51.9948 201.6 53.3079 199.985 53.3079ZM199.985 48.0432C198.696 48.0432 197.648 49.0912 197.648 50.3795C197.648 51.6679 198.696 52.7159 199.985 52.7159C201.273 52.7159 202.321 51.6679 202.321 50.3795C202.321 49.0912 201.273 48.0432 199.985 48.0432Z" fill="#060633"/>
<path d="M222.16 53.2478C220.98 53.2478 220.02 52.2881 220.02 51.1076C220.02 49.927 220.98 48.9674 222.16 48.9674C223.341 48.9674 224.3 49.927 224.3 51.1076C224.3 52.2881 223.339 53.2478 222.16 53.2478ZM222.16 49.4375C221.239 49.4375 220.49 50.1868 220.49 51.1076C220.49 52.0283 221.239 52.7759 222.16 52.7759C223.081 52.7759 223.83 52.0266 223.83 51.1076C223.828 50.1868 223.081 49.4375 222.16 49.4375Z" fill="#060633"/>
<path d="M219.002 52.3341H204.468C204.208 52.3341 203.996 52.122 203.996 51.8622V51.636C203.996 51.3762 204.208 51.1641 204.468 51.1641H219.002C219.262 51.1641 219.474 51.3762 219.474 51.636V51.8622C219.474 52.122 219.26 52.3341 219.002 52.3341Z" fill="#131375"/>
<path d="M219.17 52.3412C219.071 52.3412 218.979 52.2793 218.948 52.1803C218.907 52.0566 218.972 51.9241 219.096 51.8834L222.084 50.8867C222.208 50.846 222.341 50.9114 222.381 51.0351C222.422 51.1588 222.357 51.2914 222.233 51.332L219.244 52.3288C219.222 52.3359 219.195 52.3412 219.17 52.3412Z" fill="#131375"/>
<path d="M200.795 43.1743L205.804 51.1889H207.076L201.061 41.6844L200.795 43.1743Z" fill="#131375"/>
<path d="M201.08 47.8081L200.621 47.6685L200.142 49.2432C199.983 49.7645 199.481 50.1056 198.938 50.0597L197.417 49.9306L197.376 50.4096L198.901 50.5386C199.534 50.5916 200.105 50.9362 200.446 51.4717L201.253 52.7353L201.658 52.4773L200.879 51.2561C200.515 50.6853 200.417 49.9854 200.615 49.3386L201.08 47.8081Z" fill="#060633"/>
<path d="M222.849 49.4676L222.551 49.3774L222.24 50.4007C222.137 50.74 221.81 50.9609 221.457 50.9309L220.469 50.8478L220.442 51.1589L221.434 51.2419C221.844 51.2773 222.215 51.4999 222.438 51.8481L222.962 52.6699L223.226 52.502L222.719 51.7085C222.482 51.3373 222.42 50.8832 222.547 50.4625L222.849 49.4676Z" fill="#060633"/>
<path d="M221.881 51.0688C221.881 50.938 221.987 50.8337 222.116 50.8337C222.245 50.8337 222.352 50.9398 222.352 51.0688C222.352 51.1996 222.245 51.3039 222.116 51.3039C221.987 51.3039 221.881 51.1996 221.881 51.0688Z" fill="#F99746"/>
<path d="M199.698 50.3231C199.698 50.1923 199.804 50.088 199.933 50.088C200.064 50.088 200.168 50.194 200.168 50.3231C200.168 50.4538 200.062 50.5581 199.933 50.5581C199.804 50.5581 199.698 50.4538 199.698 50.3231Z" fill="#F99746"/>
<path d="M198.14 47.2886C198.14 47.2886 199.513 46.3272 201.399 46.9458C203.286 47.5643 203.578 49.6444 203.578 49.6444C203.578 49.6444 203.258 50.0633 202.736 49.6444C202.217 49.2256 202.213 47.1243 198.802 47.8065C198.804 47.8065 198.053 47.8206 198.14 47.2886Z" fill="#F99746"/>
<path d="M211.185 11.3279C211.185 11.3279 208.815 15.1381 208.815 16.1738C208.815 17.2076 209.57 18.397 209.57 18.397L211.968 16.4053L213.161 14.2651L211.185 11.3279Z" fill="#829CE8"/>
<path d="M213.059 16.9179C213.059 16.9179 212.259 18.36 210.829 18.1037C210.829 18.1037 210.408 17.4693 210.304 16.9603C210.292 16.8984 210.279 16.8366 210.267 16.78C210.147 16.2074 210.065 15.8893 210.065 15.8893C210.065 15.8893 210.065 15.8893 210.067 15.8893C210.122 15.8522 211.933 14.6575 211.946 14.7247C212.213 16.2799 213.059 16.9179 213.059 16.9179Z" fill="#ED975D"/>
<path d="M209.442 15.9759C209.442 15.9759 211.64 16.7129 212.078 15.3362C212.515 13.9595 213.094 13.1271 211.709 12.5986C210.323 12.0702 209.883 12.5085 209.625 12.9327C209.366 13.3568 208.88 15.7497 209.442 15.9759Z" fill="#FFB27D"/>
<path d="M206.945 51.1871H210.568C210.604 51.1801 210.63 51.173 210.646 51.1642C210.888 51.0422 210.812 50.1162 210.784 49.8317C210.779 49.7786 210.775 49.7468 210.775 49.7468C210.775 49.7468 209.501 48.7289 209.326 49.5082C209.321 49.533 209.313 49.556 209.306 49.5807C209.086 50.3106 208.096 50.6428 207.525 50.7347C207.088 50.8072 206.975 51.0599 206.945 51.1871Z" fill="#A9453D"/>
<path d="M214.04 51.1871H217.662C217.698 51.1801 217.723 51.173 217.74 51.1642C217.982 51.0422 217.906 50.1162 217.878 49.8317C217.873 49.7786 217.869 49.7468 217.869 49.7468C217.869 49.7468 216.595 48.7289 216.42 49.5082C216.415 49.533 216.408 49.556 216.401 49.5807C216.18 50.3106 215.19 50.6428 214.619 50.7347C214.181 50.8072 214.068 51.0599 214.04 51.1871Z" fill="#A9453D"/>
<path d="M207.678 30.2926C207.678 30.2926 207.87 32.7067 208.098 35.6086C208.408 39.5514 208.779 44.3937 208.816 45.3109C208.879 46.9032 209.307 49.5807 209.307 49.5807C209.307 49.5807 209.565 50.0031 210.776 49.7468C210.776 49.7468 212.031 46.1645 212.338 42.3154C212.343 42.2518 212.347 42.1881 212.352 42.1245C212.638 38.2065 213.084 29.9568 213.084 29.9568L207.678 30.2926Z" fill="#F99746"/>
<path d="M207.678 30.2926C207.678 30.2926 207.87 32.7067 208.098 35.6086L212.336 42.3154C212.342 42.2518 212.345 42.1881 212.35 42.1245C212.637 38.2065 213.082 29.9568 213.082 29.9568L207.678 30.2926Z" fill="#ED7D2B"/>
<path d="M208.561 30.579C208.561 30.579 210.938 39.6805 213.23 43.7876C215.524 47.8965 216.342 49.7257 216.342 49.7257C216.342 49.7257 217.747 50.1056 217.868 49.7469C217.868 49.7469 216.666 39.9668 215.736 37.6799C215.254 36.4958 215.029 32.8552 214.982 31.7083C214.934 30.5613 214.128 29.0008 214.128 29.0008L208.561 30.579Z" fill="#F99746"/>
<path d="M207.778 34.1259C212.187 36.3067 217.014 35.6016 217.005 35.4514C216.998 35.287 215.167 25.5581 214.534 22.7216C213.944 20.0796 213.147 17.7644 212.408 17.236C212.311 17.1689 211.731 17.4675 211.196 17.745C210.703 18.0012 210.205 18.0384 209.733 17.9518C209.733 17.9518 209.492 18.2699 209.351 18.6163C209.054 19.3391 207.506 24.2822 207.486 25.1375C207.486 25.1888 207.485 25.24 207.483 25.2895C207.478 25.5369 207.472 25.7843 207.469 26.0318C207.467 26.311 207.729 34.1012 207.778 34.1259Z" fill="#9DB0F4"/>
<path d="M207.614 30.4146C211.951 27.9828 211.522 22.384 211.522 22.384L207.473 26.0299C207.469 26.3109 207.466 26.5919 207.466 26.8676C207.466 27.0744 207.466 27.2812 207.469 27.4844V27.5109C207.464 27.5869 207.466 27.6682 207.468 27.7442C207.468 28.0835 207.609 30.1053 207.614 30.4146Z" fill="#7A96E5"/>
<path d="M203.24 28.7445C203.024 28.3716 203.192 28.209 203.192 28.209C203.192 28.209 206.774 25.5775 207.057 25.3107C207.34 25.042 208.745 20.6769 208.745 20.6769C208.745 20.6769 209.236 18.9078 210.267 18.7435C211.161 18.6003 211.762 19.0598 212.149 19.5865C212.608 20.2156 212.629 21.0657 212.212 21.7231C211.272 23.2005 209.379 26.1325 208.839 26.6255C207.633 27.7248 203.747 29.0485 203.747 29.0485C203.747 29.0485 203.41 29.0379 203.24 28.7445Z" fill="#FFB27D"/>
<path d="M211.965 15.7126C211.993 15.7356 212.463 15.9282 213.548 14.1874C213.718 13.9153 213.874 13.3038 213.589 12.7259C213.305 12.148 212.156 11.6072 211.186 11.328C210.215 11.0487 209.927 11.5824 209.643 12.1197C209.344 12.6835 208.595 13.1005 208.595 13.1005C209.402 13.6555 210.491 13.0687 210.836 13.2136C211.18 13.3586 211.254 13.9294 211.265 14.1114C211.276 14.2935 211.302 14.4454 211.763 14.327C212.225 14.2086 211.907 14.9792 211.822 15.1241C211.822 15.1258 211.725 15.5235 211.965 15.7126Z" fill="#233862"/>
<path d="M211.185 11.3279C211.185 11.3279 212.398 13.4009 212.437 14.2863C212.475 15.1717 209.734 17.9516 209.734 17.9516C209.734 17.9516 212.085 18.5684 213.053 17.9516C213.053 17.9516 215.291 14.8359 215.291 14.2669C215.289 13.696 213.979 11.3615 211.185 11.3279Z" fill="#9DB0F4"/>
<path d="M209.045 30.2078C209.045 30.2078 211.173 30.5559 212.511 30.3615L212.481 32.4999L210.779 33.1521L209.047 32.1907V30.2078H209.045Z" fill="#7A96E5"/>
<path d="M203.185 28.209C203.185 28.209 201.813 28.2779 201.538 28.5359C201.264 28.794 200.723 29.2817 201.131 29.3683L202.116 29.1527C202.619 29.2711 202.801 29.5451 203.121 29.3736C203.441 29.2022 203.793 29.0166 203.793 29.0166L203.185 28.209Z" fill="#FFB27D"/>
<path d="M199.898 29.6829C199.898 29.2782 200.225 28.9512 200.63 28.9512C201.034 28.9512 201.361 29.28 201.361 29.6829C201.361 30.0876 201.034 30.4146 200.63 30.4146C200.225 30.4146 199.898 30.0876 199.898 29.6829Z" fill="#F99746"/>
<path d="M219.74 24.5296C219.733 24.6374 219.721 24.731 219.7 24.8088C219.412 25.908 215.693 26.7387 215.276 26.341C215.199 26.2668 215.117 26.159 215.034 26.0229C213.976 24.2821 212.632 17.9411 213.161 18.3176C213.161 18.3176 214.149 18.0083 214.962 17.9323L215.105 17.9217H215.11C215.366 17.9058 215.598 17.9199 215.76 17.98C216.452 18.2363 217.005 20.0424 217.005 20.0424C217.005 20.0424 217.574 19.9611 218.083 20.023C218.145 20.0301 218.206 20.0407 218.267 20.053C218.422 20.0849 218.563 20.1361 218.669 20.2103C219.102 20.5178 219.815 23.3384 219.74 24.5296Z" fill="#F99746"/>
<path d="M213.63 18.2239C213.63 18.2239 212.354 17.0045 210.219 17.4392L209.733 17.9499C209.733 17.9499 211.877 17.4339 213.057 18.5614L213.63 18.2239Z" fill="#F99746"/>
<path d="M209.922 24.0294C209.922 24.0294 211.198 26.2933 214.68 25.1693L215.037 26.0212C215.037 26.0212 210.898 27.1982 209.5 24.9184L209.922 24.0294Z" fill="#F99746"/>
<path d="M210.38 18.3971C210.38 18.3971 209.496 18.2963 209.169 19.1199C208.936 19.7084 208.416 22.4724 207.241 24.4871C206.771 25.2948 204.977 26.8712 204.229 27.4438C204.229 27.4438 204.502 28.3186 205.087 28.5519C205.087 28.5519 207.916 28.8399 209.775 26.7227C210.307 26.1219 213.469 20.9702 212.817 19.9063C212.166 18.8424 210.38 18.3971 210.38 18.3971Z" fill="#9DB0F4"/>
<path d="M215.111 17.9181C214.984 18.04 214.738 18.3635 214.819 18.982C214.929 19.8109 215.196 20.4029 215.199 20.4082L215.107 20.4506C215.104 20.4453 214.833 19.8391 214.72 18.9944C214.646 18.443 214.821 18.1054 214.964 17.9287L215.111 17.9181Z" fill="#ED7D2B"/>
<path d="M218.709 24.5543L218.612 24.5843C218.57 24.4482 217.582 21.2618 217.649 20.6733C217.691 20.3039 217.912 20.1131 218.082 20.0194C218.144 20.0265 218.205 20.0371 218.266 20.0494C218.147 20.0866 217.803 20.2333 217.75 20.6857C217.684 21.253 218.699 24.5207 218.709 24.5543Z" fill="#ED7D2B"/>
<path d="M214.273 23.151L215.151 25.6429C215.151 25.6429 216.369 25.68 217.113 25.171L216.302 22.6102C216.302 22.6085 215.625 23.128 214.273 23.151Z" fill="#ED7D2B"/>
<path d="M219.741 24.5295C219.734 24.6373 219.721 24.731 219.7 24.8088C219.412 25.908 215.694 26.7386 215.277 26.341C215.199 26.2668 215.118 26.159 215.035 26.0229C215.068 26.0193 217.18 25.9469 219.741 24.5295Z" fill="#ED7D2B"/>
<path d="M214.273 23.1511L214.531 23.8827L215.694 23.9623L216.528 23.3225L216.302 22.6085C216.302 22.6085 214.992 22.8789 214.273 23.1511Z" fill="#EF873A"/>
<path d="M215.519 23.7416C215.519 23.7008 215.553 23.6688 215.592 23.6688C215.633 23.6688 215.664 23.7008 215.664 23.7416C215.664 23.7824 215.633 23.8143 215.592 23.8143C215.551 23.816 215.519 23.7824 215.519 23.7416Z" fill="#131375"/>
<path d="M277.032 66.1189H168.054V68.8599H277.032V66.1189Z" fill="#9DB0F4"/>
<path d="M277.032 71.6505H168.054V74.3897H277.032V71.6505Z" fill="#9DB0F4"/>
<path d="M277.031 77.1821H216.604V79.9214H277.031V77.1821Z" fill="#9DB0F4"/>
<path d="M251.112 82.7119H204.25V85.453H251.112V82.7119Z" fill="#9DB0F4"/>
<path d="M277.031 88.2435H216.604V90.9845H277.031V88.2435Z" fill="#9DB0F4"/>
<path d="M140.918 43.9095H112.058V45.2792H140.918V43.9095Z" fill="#9DB0F4"/>
<path d="M146.876 43.9095H143.701V47.0853H146.876V43.9095Z" fill="#9DB0F4"/>
<path d="M136.091 43.9095H122.851V45.2792H136.091V43.9095Z" fill="#F77D48"/>
<path d="M140.918 36.3986H112.058V37.7664H140.918V36.3986Z" fill="#9DB0F4"/>
<path d="M146.876 36.3986H143.701V39.5744H146.876V36.3986Z" fill="#9DB0F4"/>
<path d="M125.058 36.3986H115.836V37.7664H125.058V36.3986Z" fill="#F77D48"/>
<path d="M140.918 28.8877H112.058V30.2556H140.918V28.8877Z" fill="#9DB0F4"/>
<path d="M146.876 28.8877H143.701V32.0635H146.876V28.8877Z" fill="#7A96E5"/>
<path d="M135.561 28.8877H126.339V30.2556H135.561V28.8877Z" fill="#7A96E5"/>
<path d="M140.918 21.3767H112.058V22.7446H140.918V21.3767Z" fill="#9DB0F4"/>
<path d="M146.876 21.3767H143.701V24.5525H146.876V21.3767Z" fill="#7A96E5"/>
<path d="M129.865 21.3767H115.836V22.7446H129.865V21.3767Z" fill="#7A96E5"/>
<path d="M140.918 13.8657H112.058V15.2336H140.918V13.8657Z" fill="#9DB0F4"/>
<path d="M146.876 13.8657H143.701V17.0415H146.876V13.8657Z" fill="#F77D48"/>
<path d="M137.973 13.8657H125.673V15.2336H137.973V13.8657Z" fill="#F77D48"/>
<path d="M127.861 60.985H125.059V63.7879H127.861V60.985Z" fill="#9DB0F4"/>
<path d="M132.869 60.985H130.066V63.7879H132.869V60.985Z" fill="#9DB0F4"/>
<path d="M149.422 61.3456H134.805V62.3865H149.422V61.3456Z" fill="#9DB0F4"/>
<path d="M120.873 60.6333L123.172 62.3847L120.873 63.726V60.6333Z" fill="#9DB0F4"/>
<path d="M127.861 66.3469H125.058V69.1498H127.861V66.3469Z" fill="#7A96E5"/>
<path d="M132.869 66.3469H130.066V69.1498H132.869V66.3469Z" fill="#9DB0F4"/>
<path d="M149.422 66.7092H134.805V67.7484H149.422V66.7092Z" fill="#9DB0F4"/>
<path d="M120.873 65.9969L123.172 67.7483L120.873 69.0897V65.9969Z" fill="#9DB0F4"/>
<path d="M127.861 71.7106H125.058V74.5135H127.861V71.7106Z" fill="#F77D48"/>
<path d="M132.869 71.7106H130.066V74.5135H132.869V71.7106Z" fill="#9DB0F4"/>
<path d="M149.422 72.0712H134.805V73.1103H149.422V72.0712Z" fill="#9DB0F4"/>
<path d="M120.873 71.3607L123.172 73.1121L120.873 74.4535V71.3607Z" fill="#9DB0F4"/>
<path d="M127.861 77.0743H125.058V79.8772H127.861V77.0743Z" fill="#F77D48"/>
<path d="M132.869 77.0743H130.066V79.8772H132.869V77.0743Z" fill="#9DB0F4"/>
<path d="M149.422 77.4348H134.805V78.4758H149.422V77.4348Z" fill="#9DB0F4"/>
<path d="M120.873 76.7227L123.172 78.4758L120.873 79.8154V76.7227Z" fill="#9DB0F4"/>
<path d="M127.861 82.4362H125.058V85.2391H127.861V82.4362Z" fill="#7A96E5"/>
<path d="M132.869 82.4362H130.066V85.2391H132.869V82.4362Z" fill="#9DB0F4"/>
<path d="M149.422 82.7985H134.805V83.8395H149.422V82.7985Z" fill="#9DB0F4"/>
<path d="M120.873 82.0864L123.172 83.8377L120.873 85.1791V82.0864Z" fill="#9DB0F4"/>
<path d="M127.861 87.7999H125.058V90.6028H127.861V87.7999Z" fill="#7A96E5"/>
<path d="M132.869 87.7999H130.066V90.6028H132.869V87.7999Z" fill="#9DB0F4"/>
<path d="M149.422 88.1604H134.805V89.1996H149.422V88.1604Z" fill="#9DB0F4"/>
<path d="M120.873 87.45L123.172 89.2014L120.873 90.5427V87.45Z" fill="#9DB0F4"/>
<g opacity="0.5">
<g opacity="0.5">
<path opacity="0.5" d="M111.621 62.1797C111.621 62.1797 112.362 61.2253 113.364 61.2253C114.387 61.2253 115.018 62.1797 115.018 62.1797C115.018 62.1797 114.484 63.1358 113.364 63.1358C112.181 63.1358 111.621 62.1797 111.621 62.1797Z" fill="#DDE7FE"/>
</g>
<g opacity="0.5">
<path opacity="0.5" d="M112.658 62.1798C112.658 61.8139 112.955 61.5188 113.319 61.5188C113.683 61.5188 113.98 61.8139 113.98 62.1798C113.98 62.5456 113.683 62.8407 113.319 62.8407C112.955 62.8407 112.658 62.5456 112.658 62.1798Z" fill="#15156D"/>
</g>
<g opacity="0.5">
<path opacity="0.5" d="M112.915 62.1797C112.915 61.957 113.095 61.775 113.32 61.775C113.542 61.775 113.724 61.9553 113.724 62.1797C113.724 62.4024 113.544 62.5844 113.32 62.5844C113.097 62.5844 112.915 62.4024 112.915 62.1797Z" fill="#DDE7FE"/>
</g>
</g>
<g opacity="0.5">
<g opacity="0.5">
<path opacity="0.5" d="M111.621 67.5432C111.621 67.5432 112.362 66.5872 113.364 66.5872C114.387 66.5872 115.018 67.5432 115.018 67.5432C115.018 67.5432 114.484 68.4993 113.364 68.4993C112.181 68.4976 111.621 67.5432 111.621 67.5432Z" fill="#DDE7FE"/>
</g>
<g opacity="0.5">
<path opacity="0.5" d="M112.658 67.5433C112.658 67.1775 112.955 66.8823 113.319 66.8823C113.683 66.8823 113.98 67.1792 113.98 67.5433C113.98 67.9091 113.683 68.2042 113.319 68.2042C112.955 68.2042 112.658 67.9091 112.658 67.5433Z" fill="#15156D"/>
</g>
<g opacity="0.5">
<path opacity="0.5" d="M112.915 67.5433C112.915 67.3206 113.095 67.1386 113.32 67.1386C113.542 67.1386 113.724 67.3189 113.724 67.5433C113.724 67.766 113.544 67.948 113.32 67.948C113.097 67.9463 112.915 67.766 112.915 67.5433Z" fill="#DDE7FE"/>
</g>
</g>
<g opacity="0.5">
<g opacity="0.5">
<path opacity="0.5" d="M111.621 72.907C111.621 72.907 112.362 71.9509 113.364 71.9509C114.387 71.9509 115.018 72.907 115.018 72.907C115.018 72.907 114.484 73.8631 113.364 73.8631C112.181 73.8614 111.621 72.907 111.621 72.907Z" fill="#DDE7FE"/>
</g>
<g opacity="0.5">
<path opacity="0.5" d="M112.658 72.907C112.658 72.5412 112.955 72.246 113.319 72.246C113.683 72.246 113.98 72.5412 113.98 72.907C113.98 73.2728 113.683 73.568 113.319 73.568C112.955 73.568 112.658 73.2711 112.658 72.907Z" fill="#15156D"/>
</g>
<g opacity="0.5">
<path opacity="0.5" d="M112.915 72.907C112.915 72.6844 113.095 72.5023 113.32 72.5023C113.542 72.5023 113.724 72.6826 113.724 72.907C113.724 73.1297 113.544 73.31 113.32 73.31C113.097 73.31 112.915 73.1297 112.915 72.907Z" fill="#DDE7FE"/>
</g>
</g>
<g opacity="0.5">
<g opacity="0.5">
<path opacity="0.5" d="M111.621 78.269C111.621 78.269 112.362 77.3129 113.364 77.3129C114.387 77.3129 115.018 78.269 115.018 78.269C115.018 78.269 114.484 79.2251 113.364 79.2251C112.181 79.2251 111.621 78.269 111.621 78.269Z" fill="#DDE7FE"/>
</g>
<g opacity="0.5">
<path opacity="0.5" d="M112.658 78.269C112.658 77.9032 112.955 77.608 113.319 77.608C113.683 77.608 113.98 77.9032 113.98 78.269C113.98 78.6348 113.683 78.9299 113.319 78.9299C112.955 78.9299 112.658 78.6348 112.658 78.269Z" fill="#15156D"/>
</g>
<g opacity="0.5">
<path opacity="0.5" d="M112.915 78.269C112.915 78.0463 113.095 77.8643 113.32 77.8643C113.542 77.8643 113.724 78.0445 113.724 78.269C113.724 78.4916 113.544 78.6737 113.32 78.6737C113.097 78.6737 112.915 78.4934 112.915 78.269Z" fill="#DDE7FE"/>
</g>
</g>
<g opacity="0.5">
<g opacity="0.5">
<path opacity="0.5" d="M111.621 83.6327C111.621 83.6327 112.362 82.6783 113.364 82.6783C114.387 82.6783 115.018 83.6327 115.018 83.6327C115.018 83.6327 114.484 84.5888 113.364 84.5888C112.181 84.587 111.621 83.6327 111.621 83.6327Z" fill="#DDE7FE"/>
</g>
<g opacity="0.5">
<path opacity="0.5" d="M112.658 83.6326C112.658 83.2668 112.955 82.9717 113.319 82.9717C113.683 82.9717 113.98 83.2668 113.98 83.6326C113.98 83.9985 113.683 84.2936 113.319 84.2936C112.955 84.2936 112.658 83.9985 112.658 83.6326Z" fill="#15156D"/>
</g>
<g opacity="0.5">
<path opacity="0.5" d="M112.915 83.6326C112.915 83.4099 113.095 83.2279 113.32 83.2279C113.542 83.2279 113.724 83.4082 113.724 83.6326C113.724 83.8553 113.544 84.0373 113.32 84.0373C113.097 84.0373 112.915 83.8553 112.915 83.6326Z" fill="#DDE7FE"/>
</g>
</g>
<g opacity="0.5">
<g opacity="0.5">
<path opacity="0.5" d="M111.621 88.9963C111.621 88.9963 112.362 88.0402 113.364 88.0402C114.387 88.0402 115.018 88.9963 115.018 88.9963C115.018 88.9963 114.484 89.9524 113.364 89.9524C112.181 89.9507 111.621 88.9963 111.621 88.9963Z" fill="#DDE7FE"/>
</g>
<g opacity="0.5">
<path opacity="0.5" d="M112.658 88.9963C112.658 88.6305 112.955 88.3353 113.319 88.3353C113.683 88.3353 113.98 88.6305 113.98 88.9963C113.98 89.3621 113.683 89.6572 113.319 89.6572C112.955 89.6572 112.658 89.3603 112.658 88.9963Z" fill="#15156D"/>
</g>
<g opacity="0.5">
<path opacity="0.5" d="M112.915 88.9963C112.915 88.7736 113.095 88.5916 113.32 88.5916C113.542 88.5916 113.724 88.7719 113.724 88.9963C113.724 89.219 113.544 89.401 113.32 89.401C113.097 89.3992 112.915 89.219 112.915 88.9963Z" fill="#DDE7FE"/>
</g>
</g>
<path d="M277.032 82.7119H235.509V85.453H277.032V82.7119Z" fill="#F99746"/>
<path d="M266.972 77.1821H242.847V79.9214H266.972V77.1821Z" fill="#F99746"/>
<path d="M268.1 66.1189H240.18V68.8599H268.1V66.1189Z" fill="#F99746"/>
<path d="M272.796 71.6505H248.67V74.3897H272.796V71.6505Z" fill="#7A96E5"/>
<path d="M182.445 25.581C176.74 18.2927 170.392 18.0365 170.328 18.0347L170.333 17.8704C170.397 17.8721 176.823 18.1302 182.575 25.4785L182.445 25.581Z" fill="#15156D"/>
<path d="M169.592 17.9516C169.592 17.577 169.896 17.2748 170.269 17.2748C170.642 17.2748 170.946 17.5788 170.946 17.9516C170.946 18.3263 170.642 18.6285 170.269 18.6285C169.896 18.6285 169.592 18.3263 169.592 17.9516Z" fill="#F77D48"/>
<path d="M181.832 25.4608C181.832 25.0861 182.136 24.7839 182.508 24.7839C182.883 24.7839 183.185 25.0879 183.185 25.4608C183.185 25.8355 182.881 26.1377 182.508 26.1377C182.136 26.1394 181.832 25.8355 181.832 25.4608Z" fill="#F77D48"/>
<path d="M184.152 16.5433L184.026 16.4372C184.069 16.3878 188.31 11.5454 197.631 11.6762L197.629 11.8405C188.376 11.7133 184.192 16.4956 184.152 16.5433Z" fill="#15156D"/>
<path d="M183.625 17.0664C183.334 16.8313 183.288 16.4054 183.523 16.1138C183.758 15.8222 184.184 15.7763 184.475 16.0113C184.767 16.2463 184.813 16.6723 184.578 16.9639C184.343 17.2555 183.917 17.3014 183.625 17.0664Z" fill="#F77D48"/>
<path d="M197.152 12.2417C196.86 12.0067 196.815 11.5808 197.05 11.2892C197.285 10.9976 197.711 10.9516 198.002 11.1867C198.294 11.4217 198.34 11.8476 198.105 12.1392C197.87 12.4308 197.444 12.4768 197.152 12.2417Z" fill="#F77D48"/>
<path d="M227.367 16.5256L227.219 16.3983C227.266 16.3436 232.059 10.9092 243.275 11.6302L243.262 11.8246C232.142 11.1124 227.413 16.4708 227.367 16.5256Z" fill="#15156D"/>
<path d="M226.772 17.1106C226.408 16.8173 226.327 16.3136 226.59 15.9849C226.853 15.6562 227.364 15.6296 227.728 15.923C228.092 16.2164 228.174 16.7201 227.91 17.0488C227.645 17.3757 227.136 17.404 226.772 17.1106Z" fill="#F77D48"/>
<path d="M242.725 12.2682C242.361 11.9749 242.28 11.4712 242.543 11.1425C242.808 10.8137 243.317 10.7872 243.681 11.0806C244.045 11.374 244.127 11.8776 243.863 12.2064C243.598 12.5333 243.089 12.5616 242.725 12.2682Z" fill="#F77D48"/>
<path d="M219.489 19.0651H208.103V19.2294H219.489V19.0651Z" fill="#15156D"/>
<path d="M207.423 19.1463C207.423 18.7717 207.727 18.4695 208.1 18.4695C208.473 18.4695 208.777 18.7735 208.777 19.1463C208.777 19.521 208.473 19.825 208.1 19.825C207.727 19.825 207.423 19.521 207.423 19.1463Z" fill="#FA7267"/>
<path d="M218.812 19.1463C218.812 18.7717 219.116 18.4695 219.489 18.4695C219.864 18.4695 220.166 18.7735 220.166 19.1463C220.166 19.521 219.862 19.825 219.489 19.825C219.115 19.825 218.812 19.521 218.812 19.1463Z" fill="#FA7267"/>
<path d="M232.764 63.6585L231.603 62.4976L230.442 63.6586L231.603 64.8196L232.764 63.6585Z" fill="#F77D48"/>
<path d="M201.692 39.7528C195.21 39.7528 188.37 38.6147 182.826 37.367C172.772 35.1067 164.689 32.0122 164.607 31.9804L164.666 31.8266C164.745 31.8584 172.82 34.9476 182.863 37.2062C192.126 39.2898 205.006 41.0694 213.764 37.7258C222.558 34.3679 231.87 34.8539 238.132 35.8507C244.914 36.9323 249.682 38.8321 249.73 38.8515L249.668 39.0035C249.621 38.984 244.867 37.0895 238.102 36.0115C231.859 35.0165 222.583 34.5341 213.823 37.8777C210.281 39.235 206.068 39.7528 201.692 39.7528Z" fill="#15156D"/>
<path d="M214.97 37.2009C214.97 36.8262 215.274 36.524 215.647 36.524C216.022 36.524 216.324 36.828 216.324 37.2009C216.324 37.5756 216.02 37.8778 215.647 37.8778C215.274 37.8796 214.97 37.5756 214.97 37.2009Z" fill="#17152B"/>
<path d="M196.182 39.5832C196.182 39.2085 196.486 38.9063 196.859 38.9063C197.234 38.9063 197.536 39.2103 197.536 39.5832C197.536 39.9561 197.232 40.26 196.859 40.26C196.484 40.26 196.182 39.9578 196.182 39.5832Z" fill="#17152B"/>
<path d="M200.537 56.1709C199.139 56.1709 197.576 55.9306 196.018 55.2131L196.087 55.0646C200.757 57.2118 205.46 55.0275 205.506 55.0063L205.577 55.1547C205.543 55.1689 203.385 56.1709 200.537 56.1709Z" fill="#15156D"/>
<path d="M205.966 55.6054C205.674 55.8405 205.248 55.7945 205.013 55.5047C204.778 55.2131 204.824 54.7872 205.114 54.5521C205.405 54.317 205.831 54.3612 206.066 54.6528C206.303 54.9444 206.257 55.3704 205.966 55.6054Z" fill="#F77D48"/>
<path d="M196.477 55.6659C196.185 55.901 195.759 55.855 195.524 55.5652C195.289 55.2736 195.334 54.8477 195.625 54.6126C195.917 54.3776 196.343 54.4218 196.578 54.7134C196.813 55.0032 196.767 55.4309 196.477 55.6659Z" fill="#F77D48"/>
<path d="M222.929 56.1709C221.531 56.1709 219.969 55.9306 218.41 55.2131L218.479 55.0646C223.15 57.2118 227.853 55.0275 227.899 55.0063L227.969 55.1547C227.938 55.1689 225.778 56.1709 222.929 56.1709Z" fill="#15156D"/>
<path d="M228.36 55.6054C228.068 55.8404 227.642 55.7945 227.407 55.5046C227.172 55.213 227.218 54.7871 227.508 54.552C227.799 54.317 228.225 54.3612 228.46 54.6528C228.695 54.9444 228.651 55.3703 228.36 55.6054Z" fill="#F77D48"/>
<path d="M218.869 55.6659C218.578 55.901 218.152 55.855 217.917 55.5652C217.682 55.2736 217.728 54.8477 218.018 54.6126C218.309 54.3776 218.735 54.4218 218.97 54.7134C219.205 55.0032 219.161 55.4309 218.869 55.6659Z" fill="#F77D48"/>
<g opacity="0.3">
<path opacity="0.3" d="M252.424 31.201V54.4019L244.13 53.3256C244.13 53.3256 243.39 48.4356 246.914 46.8821C250.192 45.44 247.986 32.857 252.424 31.201Z" fill="#9DB0F4"/>
</g>
<path d="M248.623 38.9293C248.623 38.5546 248.927 38.2524 249.299 38.2524C249.672 38.2524 249.976 38.5564 249.976 38.9293C249.976 39.304 249.672 39.6062 249.299 39.6062C248.927 39.6062 248.623 39.304 248.623 38.9293Z" fill="#F77D48"/>
<path d="M164.127 31.9043C164.127 31.5296 164.431 31.2274 164.804 31.2274C165.179 31.2274 165.481 31.5314 165.481 31.9043C165.481 32.279 165.177 32.5812 164.804 32.5812C164.431 32.5829 164.127 32.279 164.127 31.9043Z" fill="#F77D48"/>
<g opacity="0.1">
<path opacity="0.1" d="M303.712 7.76678H259.961V57.445H303.712V7.76678Z" fill="#DDE7FE"/>
</g>
<path d="M285.125 10.7571H263.769V11.3668H285.125V10.7571Z" fill="#9DB0F4"/>
<path d="M280.293 12.2733H263.769V12.883H280.293V12.2733Z" fill="#9DB0F4"/>
<path d="M297.527 11.1105H296.372V12.2663H297.527V11.1105Z" fill="#9DB0F4"/>
<path d="M285.124 17.4956H263.769V18.1053H285.124V17.4956Z" fill="#9DB0F4"/>
<path d="M280.292 19.0119H263.768V19.6216H280.292V19.0119Z" fill="#9DB0F4"/>
<path d="M297.527 17.8491H296.372V19.0049H297.527V17.8491Z" fill="#9DB0F4"/>
<path d="M285.124 24.2343H263.769V24.844H285.124V24.2343Z" fill="#9DB0F4"/>
<path d="M280.292 25.7506H263.768V26.3603H280.292V25.7506Z" fill="#9DB0F4"/>
<path d="M297.527 24.5878H296.372V25.7436H297.527V24.5878Z" fill="#9DB0F4"/>
<path d="M285.124 30.9729H263.769V31.5826H285.124V30.9729Z" fill="#9DB0F4"/>
<path d="M280.292 32.4893H263.768V33.099H280.292V32.4893Z" fill="#9DB0F4"/>
<path d="M297.527 31.3264H296.372V32.4822H297.527V31.3264Z" fill="#9DB0F4"/>
<path d="M285.124 37.7115H263.769V38.3213H285.124V37.7115Z" fill="#9DB0F4"/>
<path d="M280.292 39.228H263.768V39.8377H280.292V39.228Z" fill="#9DB0F4"/>
<path d="M297.527 38.0651H296.372V39.2209H297.527V38.0651Z" fill="#9DB0F4"/>
<path d="M297.527 44.1763H296.372V45.3321H297.527V44.1763Z" fill="#9DB0F4"/>
<path d="M285.124 44.4503H263.769V45.06H285.124V44.4503Z" fill="#9DB0F4"/>
<path d="M280.292 45.9667H263.768V46.5764H280.292V45.9667Z" fill="#9DB0F4"/>
<path d="M285.124 51.1888H263.769V51.7985H285.124V51.1888Z" fill="#9DB0F4"/>
<path d="M280.292 52.7052H263.768V53.3149H280.292V52.7052Z" fill="#9DB0F4"/>
<path d="M297.527 51.5424H296.372V52.6981H297.527V51.5424Z" fill="#9DB0F4"/>
<path d="M278.474 156.598C278.474 156.598 275.42 164.145 276.496 164.933C277.573 165.721 281.266 162.515 282.245 159.133C283.226 155.75 278.474 156.598 278.474 156.598Z" fill="#EA9963"/>
<path d="M340.872 207.507C327.362 207.505 313.257 207.505 299.926 207.501C299.412 206.261 298.866 204.958 298.297 203.633C294.6 195.021 289.961 185.325 287.379 184.171C282.628 182.049 279.769 183.906 273.857 177.007C267.946 170.107 264.187 167.762 266.509 166.168C268.831 164.578 276.497 170.56 278.623 170.302C280.331 170.093 281.22 165.956 281.08 161.586C281.045 160.442 280.937 159.285 280.755 158.176V158.175C280.665 157.614 280.553 157.07 280.426 156.547C280.223 155.727 279.974 154.96 279.675 154.278C279.094 152.952 279.147 152.042 279.588 151.434C280.914 149.609 285.76 150.489 287.589 150.922C288.405 151.116 290.931 149.586 292.7 150.457C295.444 151.809 297.044 150.248 298.866 151.422C300.154 152.251 302.809 152.64 303.722 153.836C305.463 156.112 305.893 160.93 307.589 165.382C309.159 169.501 309.705 173.824 315.088 181.121C317.486 184.371 324.912 191.914 332.411 199.28C335.316 202.138 338.234 204.967 340.872 207.507Z" fill="#FFB27D"/>
<path d="M279.554 151.425C279.554 151.425 268.282 160.654 269.745 161.893C271.21 163.132 274.925 161.914 281.006 158.019C287.089 154.121 279.554 151.425 279.554 151.425Z" fill="#FFB27D"/>
<path d="M344.25 207.507H340.871C327.36 207.505 313.256 207.505 299.925 207.501H295.942L295.479 206.543C295.479 206.543 296.417 205.273 298.294 203.633C303.219 199.324 314.6 192.46 332.408 199.282C333.199 199.586 334.003 199.914 334.822 200.275L344.25 207.507Z" fill="#2B478B"/>
<path d="M160.031 161.312C160.031 161.312 161.987 169.213 160.81 169.841C159.633 170.468 156.429 166.774 155.937 163.286C155.444 159.799 160.031 161.312 160.031 161.312Z" fill="#EA9963"/>
<path d="M161.716 182.169C154.889 188.162 152.32 185.921 147.318 187.351C144.6 188.128 138.637 197.071 133.76 205.075C133.343 205.759 132.934 206.437 132.535 207.102C116.432 207.044 100.295 206.987 85.4282 206.932C89.4576 204.057 95.0387 200.042 100.6 195.947C109.066 189.714 117.487 183.295 120.321 180.414C126.682 173.953 127.832 169.752 129.969 165.892C132.245 161.78 132.178 156.941 135.322 156.989C136.872 157.012 138.238 154.99 139.668 154.334C141.637 153.433 143.519 155.439 146.428 154.49C148.303 153.879 150.872 155.534 151.707 155.457C153.313 155.31 157.199 154.714 158.959 155.623C159.937 156.125 160.258 157.088 159.172 158.846C158.779 159.479 158.424 160.204 158.108 160.987C157.929 161.43 157.761 161.891 157.607 162.369C157.245 163.494 156.954 164.691 156.745 165.88C155.989 170.187 156.286 174.409 157.947 174.856C160.015 175.413 168.573 169.669 170.648 171.574C172.721 173.479 168.543 176.176 161.716 182.169Z" fill="#FFB27D"/>
<path d="M158.78 155.57C158.78 155.57 175.802 160.642 174.918 162.342C174.033 164.044 165.124 163.752 158.02 162.453C150.915 161.155 158.78 155.57 158.78 155.57Z" fill="#FFB27D"/>
<path d="M135.345 207.113C134.409 207.109 133.472 207.106 132.535 207.102C116.432 207.044 100.295 206.987 85.4284 206.932C83.5038 206.925 81.6023 206.918 79.7236 206.913L98.0733 196.588C98.934 196.348 99.7752 196.136 100.601 195.949C119.198 191.709 129.496 200.116 133.762 205.077C134.439 205.861 134.964 206.563 135.345 207.113Z" fill="#2B478B"/>
<path d="M34.9955 187.356C36.5613 187.36 38.1925 187.179 39.859 186.799C46.1717 185.361 52.9122 181.075 57.8588 173.175C57.8588 173.175 56.8232 167.87 53.847 163.713H53.8453C51.7811 160.831 48.213 157.411 43.9556 157.388C41.2128 157.374 39.2723 158.373 37.756 159.67C35.1757 161.874 33.8167 164.943 31.8161 165.387C29.8438 165.824 27.7107 166.877 25.9099 168.377C25.6147 168.623 25.3284 168.879 25.0545 169.15L25.0527 169.151C24.9379 169.263 24.8265 169.374 24.7152 169.491C24.7117 169.492 24.7099 169.496 24.7081 169.498C22.2852 172.039 20.8572 175.496 22.0678 179.308C22.347 180.191 22.7818 181.109 23.4074 182.052C25.6306 185.423 29.9499 187.347 34.9955 187.356Z" fill="#ED7D2B"/>
<path d="M41.9091 159.601C41.9091 159.601 45.601 158.311 47.3435 160.543C49.086 162.777 46.7373 164.159 44.7686 163.804C42.7998 163.447 40.0641 160.82 41.9091 159.601Z" fill="#FFB583"/>
<path d="M22.0679 179.31C22.3471 180.193 22.872 181.059 23.4075 182.056C27.193 189.095 32.4913 192.052 36.5172 193.018C40.9672 194.086 49.2999 192.281 52.6118 190.141C58.0515 186.628 59.7092 180.37 57.8553 173.175C57.8553 173.175 56.8197 167.87 53.8436 163.715H53.8418C53.8418 163.715 51.4736 175.886 37.6005 179.905C31.3019 181.729 25.9912 180.833 22.0679 179.31Z" fill="#EA6C2D"/>
<path d="M27.4445 161.875C27.5152 159.661 29.894 158.898 31.8344 157.484C33.7767 156.072 36.0794 152.436 36.0794 152.436C36.0794 152.436 32.9796 152.555 29.286 153.636C25.5906 154.716 27.4445 161.875 27.4445 161.875Z" fill="#A8D29F"/>
<path d="M27.4438 161.877C27.1698 159.58 28.2426 156.338 29.6688 155.334C31.095 154.331 36.0769 152.44 36.0769 152.44C36.0769 152.44 32.9771 152.558 29.2835 153.64C25.5899 154.718 27.4438 161.877 27.4438 161.877Z" fill="#82B378"/>
<path d="M31.8159 165.391C29.8436 165.827 27.7105 166.88 25.9097 168.381C29.1579 165.945 34.3467 166.774 34.6542 165.258C34.9811 163.63 37.6532 159.817 37.7557 159.672C35.1737 161.875 33.8147 164.947 31.8159 165.391Z" fill="#EA6C2D"/>
<path d="M24.7168 169.492C24.8105 169.409 24.9218 169.298 25.0543 169.153C24.9377 169.266 24.8264 169.378 24.7168 169.492Z" fill="#95C38B"/>
<path d="M34.4264 165.433C32.8147 162.955 29.6442 161.709 27.269 161.103C25.378 160.619 22.6405 160.258 21.3274 160.103C21.0499 160.069 20.8749 160.391 21.0517 160.608L21.5182 161.181C21.9866 161.755 22.6793 162.098 23.4198 162.118C25.6961 162.174 30.807 162.634 33.389 165.55C33.6806 165.877 34.7163 165.875 34.4264 165.433Z" fill="#82B378"/>
<path d="M64.6545 117.414L62.0303 117.836L66.9989 148.766L69.6232 148.345L64.6545 117.414Z" fill="#B5453C"/>
<path d="M62.4783 112.185L62.04 117.842L64.6644 117.42L62.4783 112.185Z" fill="#EFCBAB"/>
<path d="M93.1089 120.515L90.4956 120.03L84.775 150.832L87.3883 151.317L93.1089 120.515Z" fill="#B5453C"/>
<path d="M92.7981 114.852L90.4829 120.031L93.0967 120.517L92.7981 114.852Z" fill="#EFCBAB"/>
<path d="M89.7803 111.491L87.167 111.006L81.4432 141.808L84.0566 142.294L89.7803 111.491Z" fill="#B5453C"/>
<path d="M89.4851 105.817L87.1699 110.997L89.7837 111.483L89.4851 105.817Z" fill="#EFCBAB"/>
<path d="M92.8163 130.48H71.8794V160.653H92.8163V130.48Z" fill="#ED7D2B"/>
<path d="M82.3486 130.48H61.4116V160.653H82.3486V130.48Z" fill="#F99746"/>
<path d="M222.534 194.39C222.534 194.499 222.541 194.609 222.554 194.713C222.594 195.054 222.7 195.374 222.856 195.662C222.978 195.887 223.133 196.092 223.312 196.272C223.794 196.754 224.459 197.051 225.194 197.051H262.627C264.097 197.051 265.288 195.86 265.288 194.39C265.288 193.655 264.991 192.988 264.509 192.508C264.026 192.025 263.362 191.728 262.627 191.728H225.194C223.727 191.728 222.534 192.919 222.534 194.39Z" fill="#2B478B"/>
<path d="M225.39 191.248H238.224C238.449 191.248 238.632 191.064 238.632 190.839C238.632 190.615 238.449 190.431 238.224 190.431H225.39C225.166 190.431 224.982 190.615 224.982 190.839C224.982 191.062 225.166 191.248 225.39 191.248Z" fill="#2B478B"/>
<path d="M226.1 191.728H227.491V191.245H226.1V191.728Z" fill="#233862"/>
<path d="M222.857 195.664C222.979 195.889 223.135 196.094 223.313 196.274C223.796 196.756 224.46 197.053 225.196 197.053H233.125V195.664H222.857Z" fill="#233862"/>
<path d="M270.247 193.61V195.169C270.247 195.341 270.224 195.507 270.182 195.662C269.966 196.463 269.235 197.051 268.365 197.051H229.372C228.502 197.051 227.773 196.463 227.555 195.662C227.513 195.505 227.49 195.339 227.49 195.169V193.61C227.49 192.571 228.331 191.728 229.372 191.728H268.365C269.404 191.728 270.247 192.571 270.247 193.61Z" fill="#F99746"/>
<path d="M270.182 195.664C269.967 196.465 269.235 197.053 268.366 197.053H229.372C228.503 197.053 227.773 196.465 227.556 195.664H270.182Z" fill="#EF873A"/>
<path d="M266.373 194.4C266.373 195.228 266.673 195.966 267.147 196.456C267.158 196.466 267.168 196.477 267.179 196.488C267.545 196.852 268.01 197.071 268.515 197.071C269.305 197.071 271.261 195.88 272.474 195.09C273.078 194.696 273.497 194.4 273.497 194.4C273.497 194.4 273.076 194.105 272.474 193.711C271.261 192.919 269.305 191.728 268.515 191.728C268.287 191.728 268.066 191.772 267.859 191.856C267.511 191.995 267.202 192.243 266.956 192.568C266.686 192.923 266.495 193.372 266.414 193.87C266.414 193.876 266.412 193.881 266.412 193.888C266.387 194.052 266.373 194.224 266.373 194.4Z" fill="#8C9DF4"/>
<path d="M266.373 194.4C266.373 195.227 266.673 195.966 267.147 196.456L273.149 194.391L266.412 193.888C266.387 194.052 266.373 194.224 266.373 194.4Z" fill="#6980E2"/>
<path d="M266.958 192.568L272.946 194.202L267.861 191.855C267.513 191.995 267.202 192.243 266.958 192.568Z" fill="#9FB1FF"/>
<path d="M272.083 194.4C272.083 194.718 272.246 194.989 272.474 195.09C273.078 194.695 273.497 194.4 273.497 194.4C273.497 194.4 273.077 194.105 272.474 193.711C272.246 193.81 272.083 194.08 272.083 194.4Z" fill="#182D4C"/>
<path d="M302.129 115.595L277.262 110.867L273.002 133.272L297.869 138L302.129 115.595Z" fill="#A8D29F"/>
<path d="M300.309 117.463L275.441 112.734L274.828 115.962L299.695 120.69L300.309 117.463Z" fill="#82B378"/>
<path d="M134.706 107.382L110.09 113.275L115.399 135.455L140.016 129.562L134.706 107.382Z" fill="#8C9DF4"/>
<path d="M134.71 107.379L110.094 113.272L111.261 118.149L135.878 112.257L134.71 107.379Z" fill="#6980E2"/>
<path d="M315.748 93.6932L290.815 98.0597L294.75 120.524L319.683 116.158L315.748 93.6932Z" fill="#699DEE"/>
<path d="M315.748 93.6934L290.814 98.0598L291.68 103L316.613 98.6337L315.748 93.6934Z" fill="#548EE2"/>
</svg>
