<svg width="30" height="30" viewBox="0 0 30 30" fill="none" xmlns="http://www.w3.org/2000/svg">
<path fill-rule="evenodd" clip-rule="evenodd" d="M15 30C6.71573 30 0 23.2843 0 15C0 6.71573 6.71573 0 15 0C23.2843 0 30 6.71573 30 15C30 23.2843 23.2843 30 15 30ZM15.209 14.1582C16.4372 14.1582 22.409 10.8 22.409 10.8L22.4186 10.2C22.4186 9.53764 21.881 9.00004 21.2168 9.00004H9.20121C8.53761 9.00004 8.00001 9.53764 8.00001 10.2V10.7346C8.00001 10.7346 14.0372 14.1582 15.209 14.1582ZM8.00961 12.6001C8.00901 12.6001 14.0372 15.8082 15.209 15.8082C16.4936 15.8082 22.409 12.6001 22.409 12.6001L22.4186 19.8001C22.4186 20.4625 21.881 21.0001 21.2168 21.0001H9.20121C8.53821 21.0001 8.00001 20.4625 8.00001 19.8001L8.00961 12.6001Z" fill="#876EF4"/>
</svg>
