<svg width="50" height="50" viewBox="0 0 50 50" fill="none" xmlns="http://www.w3.org/2000/svg">
<path d="M49.0235 40.1632H47.7291V5.14939C47.7291 2.31009 45.9712 0 43.8104 0H6.18976C4.02901 0 2.2711 2.30996 2.2711 5.14939V40.1632H0.976564C0.437208 40.1632 0 40.7377 0 41.4464V45.3028C0 47.8929 1.60362 50 3.57462 50H46.4254C48.3965 50 50 47.8928 50 45.3028V41.4464C50.0001 40.7377 49.5629 40.1632 49.0235 40.1632ZM4.22413 5.14939C4.22413 3.72512 5.10587 2.56648 6.18966 2.56648H24.0235V2.97032C24.0235 3.67906 24.4607 4.25356 25 4.25356C25.5394 4.25356 25.9766 3.67906 25.9766 2.97032V2.56648H43.8103C44.8941 2.56648 45.7759 3.72512 45.7759 5.14939V40.1632H4.22413V5.14939ZM1.95313 45.3028V42.7297H17.84V47.4335H3.57462C2.68057 47.4335 1.95313 46.4778 1.95313 45.3028ZM19.7931 47.4335V42.7297H30.2071V47.4335H19.7931ZM48.047 45.3028C48.047 46.4778 47.3195 47.4335 46.4255 47.4335H32.1601V42.7297H48.047V45.3028Z" fill="#00E676"/>
<path d="M24.9997 32.9071C25.1407 32.9071 25.2818 32.8669 25.4127 32.7867L32.2309 28.6061C32.5747 28.3952 32.7945 27.9417 32.7945 27.4432C32.7945 26.9446 32.5747 26.4911 32.2309 26.2803L29.8586 24.8258L32.2309 23.3712C32.5747 23.1604 32.7945 22.7069 32.7945 22.2083C32.7945 21.7098 32.5747 21.2563 32.2309 21.0455L29.8586 19.5909L32.2309 18.1363C32.5747 17.9255 32.7945 17.472 32.7945 16.9735C32.7945 16.4749 32.5747 16.0214 32.2309 15.8106L25.4127 11.6299C25.1509 11.4694 24.8486 11.4694 24.5868 11.6299L17.7687 15.8106C17.4248 16.0214 17.2051 16.4749 17.2051 16.9735C17.2051 17.472 17.4248 17.9255 17.7687 18.1363L20.1409 19.5909L17.7687 21.0455C17.4248 21.2563 17.2051 21.7098 17.2051 22.2083C17.2051 22.7069 17.4248 23.1604 17.7687 23.3712L20.1409 24.8258L17.7687 26.2803C17.4248 26.4911 17.2051 26.9446 17.2051 27.4432C17.2051 27.9417 17.4248 28.3952 17.7687 28.6061L24.5868 32.7867C24.7177 32.8671 24.8587 32.9071 24.9997 32.9071ZM24.9997 14.209L29.5084 16.9735L24.9997 19.7381L20.491 16.9736L24.9997 14.209ZM24.6363 22.3453C24.653 22.354 24.6698 22.3622 24.6867 22.3696C24.8898 22.46 25.1098 22.46 25.3128 22.3696C25.3297 22.3621 25.3465 22.354 25.3632 22.3453C25.3799 22.3365 25.3964 22.327 25.4127 22.317L27.5491 21.0071L29.5084 22.2085L24.9997 24.9729L20.491 22.2085L22.4503 21.0071L24.5867 22.317C24.6031 22.327 24.6196 22.3365 24.6363 22.3453ZM22.4503 26.2419L24.5867 27.5519C24.6031 27.5619 24.6196 27.5713 24.6362 27.5801C24.6529 27.5888 24.6697 27.597 24.6866 27.6045C24.8897 27.6948 25.1097 27.6948 25.3127 27.6045C25.3296 27.5969 25.3464 27.5888 25.3631 27.5801C25.3798 27.5714 25.3963 27.5619 25.4126 27.5519L27.549 26.2419L29.5083 27.4433L24.9997 30.2078L20.491 27.4433L22.4503 26.2419Z" fill="#00E676"/>
</svg>
