<svg width="50" height="50" viewBox="0 0 50 50" fill="none" xmlns="http://www.w3.org/2000/svg">
<path d="M49.9998 43.993L47.1034 47.1088L44.207 43.993V4.42468C44.207 3.58467 44.9692 2.90094 45.9057 2.90094H48.2903C49.2267 2.90094 49.9889 3.58467 49.9889 4.42468L49.9998 43.993Z" fill="#876EF4"/>
<path d="M16.0822 16.1555C18.1569 16.1555 19.8388 14.6468 19.8388 12.7857C19.8388 10.9246 18.1569 9.41589 16.0822 9.41589C14.0076 9.41589 12.3257 10.9246 12.3257 12.7857C12.3257 14.6468 14.0076 16.1555 16.0822 16.1555Z" fill="#876EF4"/>
<path d="M23.8565 16.1652L17.1165 23.4811L14.035 20.0918L6.17334 28.15H12.8154H16.6047H34.8868L23.8565 16.1652Z" fill="#876EF4"/>
<path d="M36.7601 0H4.31191C1.92729 0 0 1.73862 0 3.86794V46.1321C0 48.2711 1.93818 50 4.31191 50H36.7601C39.1448 50 41.0721 48.2614 41.0721 46.1321V3.86794C41.0721 1.73862 39.1339 0 36.7601 0V0ZM38.8943 46.1418C38.8943 47.1967 37.9361 48.0563 36.7601 48.0563H4.31191C3.13594 48.0563 2.17773 47.1967 2.17773 46.1418V3.86794C2.16685 2.81305 3.13594 1.95351 4.31191 1.95351H36.7601C37.9361 1.95351 38.8943 2.81305 38.8943 3.86794V46.1418Z" fill="#876EF4"/>
<path d="M35.1924 4.29773H5.86914C5.27026 4.29773 4.78027 4.73727 4.78027 5.27448V41.8051C4.78027 42.3423 5.27026 42.7819 5.86914 42.7819H35.1924C35.7912 42.7819 36.2812 42.3423 36.2812 41.8051V5.27448C36.2812 4.73727 35.7912 4.29773 35.1924 4.29773ZM34.1035 40.8283H6.95801V6.25124H34.1035V40.8283Z" fill="#876EF4"/>
<path d="M21.1456 44.3251H18.8481C18.2493 44.3251 17.7593 44.7646 17.7593 45.3018C17.7593 45.8391 18.2493 46.2786 18.8481 46.2786H21.1456C21.7444 46.2786 22.2344 45.8391 22.2344 45.3018C22.2344 44.7646 21.7444 44.3251 21.1456 44.3251Z" fill="#876EF4"/>
<path d="M13.0884 33.5906H26.6012C27.2001 33.5906 27.6901 33.151 27.6901 32.6138C27.6901 32.0766 27.2001 31.6371 26.6012 31.6371H13.0884C12.4895 31.6371 11.9995 32.0766 11.9995 32.6138C11.9995 33.151 12.4895 33.5906 13.0884 33.5906Z" fill="#876EF4"/>
<path d="M13.0884 37.6636H26.6012C27.2001 37.6636 27.6901 37.2241 27.6901 36.6868C27.6901 36.1496 27.2001 35.7101 26.6012 35.7101H13.0884C12.4895 35.7101 11.9995 36.1496 11.9995 36.6868C11.9995 37.2241 12.4895 37.6636 13.0884 37.6636Z" fill="#876EF4"/>
</svg>
