<svg width="50" height="50" viewBox="0 0 50 50" fill="none" xmlns="http://www.w3.org/2000/svg">
<path d="M35.179 24.5634C35.179 18.9051 30.6217 14.3182 24.9999 14.3182C19.3781 14.3182 14.8208 18.9051 14.8208 24.5634C14.8208 29.3289 18.0533 33.3343 22.4316 34.4799V37.5568H27.5681V34.4799C31.9465 33.3343 35.179 29.3288 35.179 24.5634Z" fill="#145DEB"/>
<path d="M49.13 20.9629L46.6577 20.6892C46.0958 17.861 44.9671 15.1375 43.361 12.7343L44.9105 10.7996C45.225 10.4068 45.1938 9.83778 44.8383 9.48244L40.5112 5.15671C40.16 4.80559 39.6038 4.77439 39.2162 5.08475L37.2706 6.64186C34.864 5.03219 32.1364 3.90188 29.3032 3.33993L29.0301 0.875069C28.9749 0.376801 28.5569 0 28.0596 0H21.9401C21.4428 0 21.0248 0.376801 20.9696 0.875167L20.6966 3.33993C17.8634 3.90188 15.1358 5.03219 12.7292 6.64186L10.7836 5.08475C10.3962 4.77459 9.83994 4.80559 9.48867 5.15661L5.16152 9.48234C4.80596 9.83778 4.77481 10.4068 5.08936 10.7996L6.63887 12.7344C5.03281 15.1375 3.9041 17.8611 3.34219 20.6892L0.869922 20.9629C0.374805 21.0177 0 21.4393 0 21.9413V28.0587C0 28.5608 0.374805 28.9824 0.869922 29.0371L3.34219 29.3108C3.9041 32.139 5.03291 34.8625 6.63887 37.2656L5.08936 39.2004C4.77481 39.5932 4.80596 40.1622 5.16152 40.5177L9.48867 44.8434C9.83994 45.1944 10.3962 45.2254 10.7837 44.9152L12.7293 43.3581C15.1357 44.9675 17.8637 46.0981 20.6967 46.6601L20.9697 49.1248C21.0249 49.6232 21.4429 50 21.9402 50H28.0597C28.5571 50 28.975 49.6232 29.0302 49.1249L29.3033 46.6601C32.1363 46.0981 34.8643 44.9675 37.2707 43.3581L39.2163 44.9152C39.6037 45.2252 40.1599 45.1947 40.5113 44.8433L44.8384 40.5176C45.1939 40.1622 45.2251 39.5932 44.9105 39.2004L43.3611 37.2657C44.9672 34.8625 46.0959 32.139 46.6578 29.3108L49.1301 29.0371C49.6252 28.9823 50 28.5607 50 28.0587V21.9413C49.9999 21.4393 49.6251 21.0177 49.13 20.9629ZM48.0468 27.1766L45.7209 27.4341C45.2852 27.4824 44.9348 27.8173 44.8639 28.2533C44.3694 31.292 43.1543 34.2233 41.3497 36.7303C41.0906 37.0902 41.1031 37.5806 41.3803 37.9266L42.8371 39.7457L39.7518 42.8301L37.9196 41.3638C37.5787 41.0909 37.0997 41.0786 36.745 41.3334C34.2357 43.1386 31.301 44.3543 28.2582 44.8492C27.8252 44.9196 27.4919 45.2724 27.4432 45.7117L27.1861 48.0314H22.814L22.5569 45.7118C22.5083 45.2724 22.175 44.9196 21.742 44.8492C18.6992 44.3544 15.7646 43.1386 13.2552 41.3334C12.9006 41.0781 12.4215 41.0908 12.0806 41.3638L10.2484 42.8301L7.16309 39.7457L8.61992 37.9266C8.89707 37.5805 8.90957 37.0902 8.65049 36.7303C6.8459 34.2233 5.63076 31.292 5.13633 28.2533C5.06533 27.8172 4.71494 27.4824 4.2793 27.4341L1.95303 27.1766V22.8235L4.27891 22.566C4.71455 22.5177 5.06504 22.1828 5.13594 21.7468C5.63037 18.7081 6.84551 15.7768 8.6501 13.2698C8.90918 12.9099 8.89668 12.4195 8.61953 12.0735L7.1627 10.2544L10.248 7.16995L12.0802 8.63621C12.4212 8.90917 12.9003 8.92137 13.2547 8.66663C15.7642 6.86147 18.6988 5.64582 21.7416 5.1509C22.1746 5.08052 22.5079 4.72773 22.5565 4.28833L22.8136 1.96866H27.1857L27.4428 4.28843C27.4915 4.72773 27.8248 5.08052 28.2578 5.1509C31.3005 5.64572 34.2353 6.86147 36.7446 8.66663C37.0993 8.92167 37.5781 8.90917 37.9192 8.63621L39.7514 7.16995L42.8367 10.2544L41.3799 12.0735C41.1027 12.4196 41.0902 12.9099 41.3493 13.2698C43.1539 15.7768 44.3691 18.7081 44.8635 21.7468C44.9345 22.1828 45.2848 22.5177 45.7205 22.566L48.0468 22.8235V27.1766Z" fill="#145DEB"/>
<path d="M24.9996 7.50378C15.3535 7.50378 7.50586 15.3526 7.50586 25.0001C7.50586 34.6477 15.3535 42.4964 24.9996 42.4964C34.6457 42.4964 42.4934 34.6477 42.4934 25.0001C42.4934 15.3526 34.6457 7.50378 24.9996 7.50378ZM24.9996 40.5277C16.4305 40.5277 9.45898 33.562 9.45898 25.0001C9.45898 16.4381 16.4305 9.47244 24.9996 9.47244C33.5687 9.47244 40.5403 16.4381 40.5403 25.0001C40.5403 33.562 33.5687 40.5277 24.9996 40.5277Z" fill="#145DEB"/>
<path d="M26.7058 27.5965L24.9994 29.3139L23.293 27.5965C22.9114 27.2125 22.293 27.2129 21.912 27.5975C21.5309 27.9822 21.5313 28.6055 21.913 28.9896L24.3093 31.4016C24.5 31.5934 24.7497 31.6894 24.9994 31.6894C25.2491 31.6894 25.4988 31.5934 25.6893 31.4016L28.0857 28.9896C28.4673 28.6056 28.4678 27.9823 28.0868 27.5976C27.7057 27.2128 27.0875 27.2124 26.7058 27.5965Z" fill="#145DEB"/>
</svg>
