<svg width="50" height="50" viewBox="0 0 50 50" fill="none" xmlns="http://www.w3.org/2000/svg">
<path d="M18.1133 24.2811L12.293 26.0066L18.1133 27.7321L20.4087 32.1071L22.7042 27.7321L28.5244 26.0066L22.7042 24.2811L20.4087 19.9061L18.1133 24.2811Z" fill="#FF9300"/>
<path d="M42.1832 49.5659L46.3124 45.0528C46.3371 45.0259 49.7377 41.5677 49.7377 41.5677C50 41.3418 50 40.9863 50 40.9783V2.26191C50.0001 1.01475 48.6502 0 46.9909 0H35.2146C33.5554 0 32.2055 1.01475 32.2055 2.26191V40.9783C32.2055 40.9862 32.2104 41.0644 32.2107 41.0658C32.2327 41.2533 32.325 41.4257 32.4678 41.5677C32.4678 41.5677 35.8686 45.026 35.8931 45.0528L38.6326 48.0469H10.1713C9.50713 48.0469 8.96682 47.6407 8.96682 47.1415C8.96682 46.6423 9.50713 46.2361 10.1713 46.2361H24.5669C26.6463 46.2361 28.338 44.9646 28.338 43.4015C28.338 41.8384 26.6463 40.5668 24.5669 40.5668H4.17025C3.30346 40.5668 2.59829 40.0367 2.59829 39.3853C2.59829 38.7338 3.30346 38.2037 4.17025 38.2037H21.0103C21.7278 38.2037 22.3094 37.7665 22.3094 37.2271C22.3094 36.6878 21.7278 36.2506 21.0103 36.2506H4.17025C1.87077 36.2506 0 37.6567 0 39.3853C0 41.1138 1.87077 42.5199 4.17025 42.5199H24.5669C25.2136 42.5199 25.7397 42.9154 25.7397 43.4015C25.7397 43.8875 25.2135 44.283 24.5669 44.283H10.1713C8.07444 44.283 6.36853 45.5653 6.36853 47.1415C6.36853 48.7177 8.07456 50 10.1713 50H41.1027C41.1127 50 41.2216 49.9957 41.2245 49.9957C41.7867 49.9957 42.1619 49.5897 42.1832 49.5659ZM41.1028 47.3001L39.4338 45.476H42.7718L41.1028 47.3001ZM34.8038 40.0026V38.1061H47.4018V40.0026H34.8038ZM47.4018 36.1529H34.8038V6.43848H47.4018V36.1529ZM36.0859 41.9558H46.1197L44.5733 43.5228H37.6323L36.0859 41.9558ZM34.8038 2.26191C34.8038 2.0916 34.988 1.95312 35.2146 1.95312H46.9909C47.2175 1.95312 47.4017 2.0916 47.4017 2.26191V4.48535H34.8037V2.26191H34.8038Z" fill="#FF9300"/>
<path d="M7.49192 16.0204L10.7176 16.9767L11.9897 19.4014C12.1855 19.7744 12.6647 20.0197 13.1983 20.0197C13.7318 20.0197 14.2111 19.7744 14.4069 19.4014L15.679 16.9767L18.9046 16.0204C19.4009 15.8732 19.7271 15.513 19.7271 15.1119C19.7271 14.7108 19.4009 14.3506 18.9046 14.2034L15.679 13.2471L14.4069 10.8224C14.2111 10.4494 13.7318 10.2042 13.1983 10.2042C12.6647 10.2042 12.1855 10.4494 11.9897 10.8224L10.7176 13.2471L7.49192 14.2034C6.99565 14.3506 6.66943 14.7108 6.66943 15.1119C6.66943 15.513 6.99565 15.8732 7.49192 16.0204ZM12.1957 14.9085C12.5305 14.8092 12.7955 14.61 12.9276 14.3583L13.1983 13.8425L13.4689 14.3583C13.601 14.61 13.866 14.8092 14.2008 14.9085L14.887 15.1119L14.2008 15.3153C13.866 15.4146 13.601 15.6139 13.4689 15.8655L13.1983 16.3813L12.9276 15.8655C12.7955 15.6139 12.5305 15.4146 12.1957 15.3153L11.5095 15.1119L12.1957 14.9085Z" fill="#FF9300"/>
</svg>
