<svg width="50" height="50" viewBox="0 0 50 50" fill="none" xmlns="http://www.w3.org/2000/svg">
<path d="M24.1939 23.629L15.2371 18.2519L6.28027 23.629L6.29981 23.6397L6.28027 23.629V35.4328L15.2371 40.7456L24.1939 35.4328V23.629L24.1549 23.6504L24.1939 23.629Z" fill="#145DEB"/>
<path d="M46.7376 0H3.27212C1.46513 0 0 1.61739 0 3.59897V46.4117C0 48.3933 1.46513 50 3.27212 50H46.7278C48.5348 50 50 48.3933 50 46.4117V3.59897C50.0097 1.61739 48.5446 0 46.7376 0ZM1.9535 3.59897C1.9535 2.79563 2.54932 2.15296 3.27212 2.15296H46.7278C47.4604 2.15296 48.0464 2.80634 48.0464 3.59897V9.00814H1.9535V3.59897ZM48.0562 46.401C48.0562 47.2044 47.4604 47.847 46.7376 47.847H3.27212C2.53956 47.847 1.9535 47.1937 1.9535 46.401V11.1504H48.0562V46.401Z" fill="#145DEB"/>
<path d="M43.4456 4.49866H43.0842C42.547 4.49866 42.1074 4.98068 42.1074 5.56983C42.1074 6.15897 42.547 6.641 43.0842 6.641H43.4456C43.9828 6.641 44.4223 6.15897 44.4223 5.56983C44.4223 4.98068 43.9925 4.49866 43.4456 4.49866Z" fill="#145DEB"/>
<path d="M37.3899 4.49866H37.0285C36.4913 4.49866 36.0518 4.98068 36.0518 5.56983C36.0518 6.15897 36.4913 6.641 37.0285 6.641H37.3899C37.9271 6.641 38.3667 6.15897 38.3667 5.56983C38.3667 4.98068 37.9271 4.49866 37.3899 4.49866Z" fill="#145DEB"/>
<path d="M31.3245 4.49866H30.9631C30.4259 4.49866 29.9863 4.98068 29.9863 5.56983C29.9863 6.15897 30.4259 6.641 30.9631 6.641H31.3245C31.8617 6.641 32.3012 6.15897 32.3012 5.56983C32.3012 4.98068 31.8715 4.49866 31.3245 4.49866Z" fill="#145DEB"/>
<path d="M13.4308 4.49866H6.56416C6.02694 4.49866 5.5874 4.98068 5.5874 5.56983C5.5874 6.15897 6.02694 6.641 6.56416 6.641H13.4308C13.968 6.641 14.4075 6.15897 14.4075 5.56983C14.4075 4.98068 13.968 4.49866 13.4308 4.49866Z" fill="#145DEB"/>
<path d="M29.5661 29.488H43.729C44.2662 29.488 44.7057 29.006 44.7057 28.4169V23.629C44.7057 23.0399 44.2662 22.5579 43.729 22.5579H29.5661C29.0289 22.5579 28.5894 23.0399 28.5894 23.629V28.4169C28.5894 29.006 29.0191 29.488 29.5661 29.488ZM30.5429 24.7001H42.7522V27.3458H30.5429V24.7001Z" fill="#145DEB"/>
<path d="M29.5661 35.1757H43.729C44.2662 35.1757 44.7057 34.6937 44.7057 34.1046C44.7057 33.5155 44.2662 33.0335 43.729 33.0335H29.5661C29.0289 33.0335 28.5894 33.5155 28.5894 34.1046C28.5894 34.6937 29.0191 35.1757 29.5661 35.1757Z" fill="#145DEB"/>
</svg>
